<svg width="1440" height="1160" viewBox="0 0 1440 1160" fill="none" xmlns="http://www.w3.org/2000/svg">
<g opacity="0.1">
<mask id="mask0_8308_1402" style="mask-type:alpha" maskUnits="userSpaceOnUse" x="140" y="0" width="1160" height="1160">
<rect width="1159.03" height="1159.03" transform="translate(140.137 0.44458)" fill="url(#paint0_radial_8308_1402)"/>
</mask>
<g mask="url(#mask0_8308_1402)">
<g clip-path="url(#clip0_8308_1402)">
<mask id="path-3-inside-1_8308_1402" fill="white">
<path d="M101.503 0.44458H178.772V77.7135H101.503V0.44458Z"/>
</mask>
<path d="M178.772 77.7135V78.5184H179.577V77.7135H178.772ZM178.772 0.44458H177.967V77.7135H178.772H179.577V0.44458H178.772ZM178.772 77.7135V76.9086H101.503V77.7135V78.5184H178.772V77.7135Z" fill="#80C0FF" mask="url(#path-3-inside-1_8308_1402)"/>
<mask id="path-5-inside-2_8308_1402" fill="white">
<path d="M178.771 0.44458H256.04V77.7135H178.771V0.44458Z"/>
</mask>
<path d="M256.04 77.7135V78.5184H256.845V77.7135H256.04ZM256.04 0.44458H255.236V77.7135H256.04H256.845V0.44458H256.04ZM256.04 77.7135V76.9086H178.771V77.7135V78.5184H256.04V77.7135Z" fill="#80C0FF" mask="url(#path-5-inside-2_8308_1402)"/>
<mask id="path-7-inside-3_8308_1402" fill="white">
<path d="M256.041 0.44458H333.31V77.7135H256.041V0.44458Z"/>
</mask>
<path d="M333.31 77.7135V78.5184H334.115V77.7135H333.31ZM333.31 0.44458H332.505V77.7135H333.31H334.115V0.44458H333.31ZM333.31 77.7135V76.9086H256.041V77.7135V78.5184H333.31V77.7135Z" fill="#80C0FF" mask="url(#path-7-inside-3_8308_1402)"/>
<mask id="path-9-inside-4_8308_1402" fill="white">
<path d="M333.31 0.44458H410.579V77.7135H333.31V0.44458Z"/>
</mask>
<path d="M410.579 77.7135V78.5184H411.383V77.7135H410.579ZM410.579 0.44458H409.774V77.7135H410.579H411.383V0.44458H410.579ZM410.579 77.7135V76.9086H333.31V77.7135V78.5184H410.579V77.7135Z" fill="#80C0FF" mask="url(#path-9-inside-4_8308_1402)"/>
<mask id="path-11-inside-5_8308_1402" fill="white">
<path d="M410.578 0.44458H487.847V77.7135H410.578V0.44458Z"/>
</mask>
<path d="M487.847 77.7135V78.5184H488.652V77.7135H487.847ZM487.847 0.44458H487.042V77.7135H487.847H488.652V0.44458H487.847ZM487.847 77.7135V76.9086H410.578V77.7135V78.5184H487.847V77.7135Z" fill="#80C0FF" mask="url(#path-11-inside-5_8308_1402)"/>
<mask id="path-13-inside-6_8308_1402" fill="white">
<path d="M487.848 0.44458H565.117V77.7135H487.848V0.44458Z"/>
</mask>
<path d="M565.117 77.7135V78.5184H565.921V77.7135H565.117ZM565.117 0.44458H564.312V77.7135H565.117H565.921V0.44458H565.117ZM565.117 77.7135V76.9086H487.848V77.7135V78.5184H565.117V77.7135Z" fill="#80C0FF" mask="url(#path-13-inside-6_8308_1402)"/>
<mask id="path-15-inside-7_8308_1402" fill="white">
<path d="M565.116 0.44458H642.385V77.7135H565.116V0.44458Z"/>
</mask>
<path d="M642.385 77.7135V78.5184H643.19V77.7135H642.385ZM642.385 0.44458H641.58V77.7135H642.385H643.19V0.44458H642.385ZM642.385 77.7135V76.9086H565.116V77.7135V78.5184H642.385V77.7135Z" fill="#80C0FF" mask="url(#path-15-inside-7_8308_1402)"/>
<mask id="path-17-inside-8_8308_1402" fill="white">
<path d="M642.386 0.44458H719.655V77.7135H642.386V0.44458Z"/>
</mask>
<path d="M719.655 77.7135V78.5184H720.46V77.7135H719.655ZM719.655 0.44458H718.85V77.7135H719.655H720.46V0.44458H719.655ZM719.655 77.7135V76.9086H642.386V77.7135V78.5184H719.655V77.7135Z" fill="#80C0FF" mask="url(#path-17-inside-8_8308_1402)"/>
<mask id="path-19-inside-9_8308_1402" fill="white">
<path d="M719.654 0.44458H796.923V77.7135H719.654V0.44458Z"/>
</mask>
<path d="M796.923 77.7135V78.5184H797.728V77.7135H796.923ZM796.923 0.44458H796.118V77.7135H796.923H797.728V0.44458H796.923ZM796.923 77.7135V76.9086H719.654V77.7135V78.5184H796.923V77.7135Z" fill="#80C0FF" mask="url(#path-19-inside-9_8308_1402)"/>
<mask id="path-21-inside-10_8308_1402" fill="white">
<path d="M796.923 0.44458H874.192V77.7135H796.923V0.44458Z"/>
</mask>
<path d="M874.192 77.7135V78.5184H874.997V77.7135H874.192ZM874.192 0.44458H873.387V77.7135H874.192H874.997V0.44458H874.192ZM874.192 77.7135V76.9086H796.923V77.7135V78.5184H874.192V77.7135Z" fill="#80C0FF" mask="url(#path-21-inside-10_8308_1402)"/>
<mask id="path-23-inside-11_8308_1402" fill="white">
<path d="M874.192 0.44458H951.461V77.7135H874.192V0.44458Z"/>
</mask>
<path d="M951.461 77.7135V78.5184H952.266V77.7135H951.461ZM951.461 0.44458H950.656V77.7135H951.461H952.266V0.44458H951.461ZM951.461 77.7135V76.9086H874.192V77.7135V78.5184H951.461V77.7135Z" fill="#80C0FF" mask="url(#path-23-inside-11_8308_1402)"/>
<mask id="path-25-inside-12_8308_1402" fill="white">
<path d="M951.461 0.44458H1028.73V77.7135H951.461V0.44458Z"/>
</mask>
<path d="M1028.73 77.7135V78.5184H1029.53V77.7135H1028.73ZM1028.73 0.44458H1027.92V77.7135H1028.73H1029.53V0.44458H1028.73ZM1028.73 77.7135V76.9086H951.461V77.7135V78.5184H1028.73V77.7135Z" fill="#80C0FF" mask="url(#path-25-inside-12_8308_1402)"/>
<mask id="path-27-inside-13_8308_1402" fill="white">
<path d="M1028.73 0.44458H1106V77.7135H1028.73V0.44458Z"/>
</mask>
<path d="M1106 77.7135V78.5184H1106.8V77.7135H1106ZM1106 0.44458H1105.19V77.7135H1106H1106.8V0.44458H1106ZM1106 77.7135V76.9086H1028.73V77.7135V78.5184H1106V77.7135Z" fill="#80C0FF" mask="url(#path-27-inside-13_8308_1402)"/>
<mask id="path-29-inside-14_8308_1402" fill="white">
<path d="M1106 0.44458H1183.27V77.7135H1106V0.44458Z"/>
</mask>
<path d="M1183.27 77.7135V78.5184H1184.07V77.7135H1183.27ZM1183.27 0.44458H1182.46V77.7135H1183.27H1184.07V0.44458H1183.27ZM1183.27 77.7135V76.9086H1106V77.7135V78.5184H1183.27V77.7135Z" fill="#80C0FF" mask="url(#path-29-inside-14_8308_1402)"/>
<mask id="path-31-inside-15_8308_1402" fill="white">
<path d="M1183.27 0.44458H1260.54V77.7135H1183.27V0.44458Z"/>
</mask>
<path d="M1260.54 77.7135V78.5184H1261.34V77.7135H1260.54ZM1260.54 0.44458H1259.73V77.7135H1260.54H1261.34V0.44458H1260.54ZM1260.54 77.7135V76.9086H1183.27V77.7135V78.5184H1260.54V77.7135Z" fill="#80C0FF" mask="url(#path-31-inside-15_8308_1402)"/>
<mask id="path-33-inside-16_8308_1402" fill="white">
<path d="M1260.54 0.44458H1337.81V77.7135H1260.54V0.44458Z"/>
</mask>
<path d="M1337.81 77.7135V78.5184H1338.61V77.7135H1337.81ZM1337.81 0.44458H1337V77.7135H1337.81H1338.61V0.44458H1337.81ZM1337.81 77.7135V76.9086H1260.54V77.7135V78.5184H1337.81V77.7135Z" fill="#80C0FF" mask="url(#path-33-inside-16_8308_1402)"/>
<mask id="path-35-inside-17_8308_1402" fill="white">
<path d="M101.503 77.7135H178.772V154.982H101.503V77.7135Z"/>
</mask>
<path d="M178.772 154.982V155.787H179.577V154.982H178.772ZM178.772 77.7135H177.967V154.982H178.772H179.577V77.7135H178.772ZM178.772 154.982V154.178H101.503V154.982V155.787H178.772V154.982Z" fill="#80C0FF" mask="url(#path-35-inside-17_8308_1402)"/>
<mask id="path-37-inside-18_8308_1402" fill="white">
<path d="M178.771 77.7135H256.04V154.982H178.771V77.7135Z"/>
</mask>
<path d="M256.04 154.982V155.787H256.845V154.982H256.04ZM256.04 77.7135H255.236V154.982H256.04H256.845V77.7135H256.04ZM256.04 154.982V154.178H178.771V154.982V155.787H256.04V154.982Z" fill="#80C0FF" mask="url(#path-37-inside-18_8308_1402)"/>
<mask id="path-39-inside-19_8308_1402" fill="white">
<path d="M256.041 77.7135H333.31V154.982H256.041V77.7135Z"/>
</mask>
<path d="M333.31 154.982V155.787H334.115V154.982H333.31ZM333.31 77.7135H332.505V154.982H333.31H334.115V77.7135H333.31ZM333.31 154.982V154.178H256.041V154.982V155.787H333.31V154.982Z" fill="#80C0FF" mask="url(#path-39-inside-19_8308_1402)"/>
<mask id="path-41-inside-20_8308_1402" fill="white">
<path d="M333.31 77.7135H410.579V154.982H333.31V77.7135Z"/>
</mask>
<path d="M333.31 77.7135H410.579V154.982H333.31V77.7135Z" fill="#4AA2FA"/>
<path d="M410.579 154.982V155.787H411.383V154.982H410.579ZM410.579 77.7135H409.774V154.982H410.579H411.383V77.7135H410.579ZM410.579 154.982V154.178H333.31V154.982V155.787H410.579V154.982Z" fill="#80C0FF" mask="url(#path-41-inside-20_8308_1402)"/>
<mask id="path-43-inside-21_8308_1402" fill="white">
<path d="M410.578 77.7135H487.847V154.982H410.578V77.7135Z"/>
</mask>
<path d="M487.847 154.982V155.787H488.652V154.982H487.847ZM487.847 77.7135H487.042V154.982H487.847H488.652V77.7135H487.847ZM487.847 154.982V154.178H410.578V154.982V155.787H487.847V154.982Z" fill="#80C0FF" mask="url(#path-43-inside-21_8308_1402)"/>
<mask id="path-45-inside-22_8308_1402" fill="white">
<path d="M487.848 77.7135H565.117V154.982H487.848V77.7135Z"/>
</mask>
<path d="M565.117 154.982V155.787H565.921V154.982H565.117ZM565.117 77.7135H564.312V154.982H565.117H565.921V77.7135H565.117ZM565.117 154.982V154.178H487.848V154.982V155.787H565.117V154.982Z" fill="#80C0FF" mask="url(#path-45-inside-22_8308_1402)"/>
<mask id="path-47-inside-23_8308_1402" fill="white">
<path d="M565.116 77.7135H642.385V154.982H565.116V77.7135Z"/>
</mask>
<path d="M642.385 154.982V155.787H643.19V154.982H642.385ZM642.385 77.7135H641.58V154.982H642.385H643.19V77.7135H642.385ZM642.385 154.982V154.178H565.116V154.982V155.787H642.385V154.982Z" fill="#80C0FF" mask="url(#path-47-inside-23_8308_1402)"/>
<mask id="path-49-inside-24_8308_1402" fill="white">
<path d="M642.386 77.7135H719.655V154.982H642.386V77.7135Z"/>
</mask>
<path d="M719.655 154.982V155.787H720.46V154.982H719.655ZM719.655 77.7135H718.85V154.982H719.655H720.46V77.7135H719.655ZM719.655 154.982V154.178H642.386V154.982V155.787H719.655V154.982Z" fill="#80C0FF" mask="url(#path-49-inside-24_8308_1402)"/>
<mask id="path-51-inside-25_8308_1402" fill="white">
<path d="M719.654 77.7135H796.923V154.982H719.654V77.7135Z"/>
</mask>
<path d="M796.923 154.982V155.787H797.728V154.982H796.923ZM796.923 77.7135H796.118V154.982H796.923H797.728V77.7135H796.923ZM796.923 154.982V154.178H719.654V154.982V155.787H796.923V154.982Z" fill="#80C0FF" mask="url(#path-51-inside-25_8308_1402)"/>
<mask id="path-53-inside-26_8308_1402" fill="white">
<path d="M796.923 77.7135H874.192V154.982H796.923V77.7135Z"/>
</mask>
<path d="M874.192 154.982V155.787H874.997V154.982H874.192ZM874.192 77.7135H873.387V154.982H874.192H874.997V77.7135H874.192ZM874.192 154.982V154.178H796.923V154.982V155.787H874.192V154.982Z" fill="#80C0FF" mask="url(#path-53-inside-26_8308_1402)"/>
<mask id="path-55-inside-27_8308_1402" fill="white">
<path d="M874.192 77.7135H951.461V154.982H874.192V77.7135Z"/>
</mask>
<path d="M951.461 154.982V155.787H952.266V154.982H951.461ZM951.461 77.7135H950.656V154.982H951.461H952.266V77.7135H951.461ZM951.461 154.982V154.178H874.192V154.982V155.787H951.461V154.982Z" fill="#80C0FF" mask="url(#path-55-inside-27_8308_1402)"/>
<mask id="path-57-inside-28_8308_1402" fill="white">
<path d="M951.461 77.7135H1028.73V154.982H951.461V77.7135Z"/>
</mask>
<path d="M1028.73 154.982V155.787H1029.53V154.982H1028.73ZM1028.73 77.7135H1027.92V154.982H1028.73H1029.53V77.7135H1028.73ZM1028.73 154.982V154.178H951.461V154.982V155.787H1028.73V154.982Z" fill="#80C0FF" mask="url(#path-57-inside-28_8308_1402)"/>
<mask id="path-59-inside-29_8308_1402" fill="white">
<path d="M1028.73 77.7135H1106V154.982H1028.73V77.7135Z"/>
</mask>
<path d="M1028.73 77.7135H1106V154.982H1028.73V77.7135Z" fill="#4AA2FA"/>
<path d="M1106 154.982V155.787H1106.8V154.982H1106ZM1106 77.7135H1105.19V154.982H1106H1106.8V77.7135H1106ZM1106 154.982V154.178H1028.73V154.982V155.787H1106V154.982Z" fill="#80C0FF" mask="url(#path-59-inside-29_8308_1402)"/>
<mask id="path-61-inside-30_8308_1402" fill="white">
<path d="M1106 77.7135H1183.27V154.982H1106V77.7135Z"/>
</mask>
<path d="M1183.27 154.982V155.787H1184.07V154.982H1183.27ZM1183.27 77.7135H1182.46V154.982H1183.27H1184.07V77.7135H1183.27ZM1183.27 154.982V154.178H1106V154.982V155.787H1183.27V154.982Z" fill="#80C0FF" mask="url(#path-61-inside-30_8308_1402)"/>
<mask id="path-63-inside-31_8308_1402" fill="white">
<path d="M1183.27 77.7135H1260.54V154.982H1183.27V77.7135Z"/>
</mask>
<path d="M1260.54 154.982V155.787H1261.34V154.982H1260.54ZM1260.54 77.7135H1259.73V154.982H1260.54H1261.34V77.7135H1260.54ZM1260.54 154.982V154.178H1183.27V154.982V155.787H1260.54V154.982Z" fill="#80C0FF" mask="url(#path-63-inside-31_8308_1402)"/>
<mask id="path-65-inside-32_8308_1402" fill="white">
<path d="M1260.54 77.7135H1337.81V154.982H1260.54V77.7135Z"/>
</mask>
<path d="M1337.81 154.982V155.787H1338.61V154.982H1337.81ZM1337.81 77.7135H1337V154.982H1337.81H1338.61V77.7135H1337.81ZM1337.81 154.982V154.178H1260.54V154.982V155.787H1337.81V154.982Z" fill="#80C0FF" mask="url(#path-65-inside-32_8308_1402)"/>
<mask id="path-67-inside-33_8308_1402" fill="white">
<path d="M101.503 154.982H178.772V232.251H101.503V154.982Z"/>
</mask>
<path d="M178.772 232.251V233.056H179.577V232.251H178.772ZM178.772 154.982H177.967V232.251H178.772H179.577V154.982H178.772ZM178.772 232.251V231.446H101.503V232.251V233.056H178.772V232.251Z" fill="#80C0FF" mask="url(#path-67-inside-33_8308_1402)"/>
<mask id="path-69-inside-34_8308_1402" fill="white">
<path d="M178.771 154.982H256.04V232.251H178.771V154.982Z"/>
</mask>
<path d="M256.04 232.251V233.056H256.845V232.251H256.04ZM256.04 154.982H255.236V232.251H256.04H256.845V154.982H256.04ZM256.04 232.251V231.446H178.771V232.251V233.056H256.04V232.251Z" fill="#80C0FF" mask="url(#path-69-inside-34_8308_1402)"/>
<mask id="path-71-inside-35_8308_1402" fill="white">
<path d="M256.041 154.982H333.31V232.251H256.041V154.982Z"/>
</mask>
<path d="M333.31 232.251V233.056H334.115V232.251H333.31ZM333.31 154.982H332.505V232.251H333.31H334.115V154.982H333.31ZM333.31 232.251V231.446H256.041V232.251V233.056H333.31V232.251Z" fill="#80C0FF" mask="url(#path-71-inside-35_8308_1402)"/>
<mask id="path-73-inside-36_8308_1402" fill="white">
<path d="M333.31 154.982H410.579V232.251H333.31V154.982Z"/>
</mask>
<path d="M410.579 232.251V233.056H411.383V232.251H410.579ZM410.579 154.982H409.774V232.251H410.579H411.383V154.982H410.579ZM410.579 232.251V231.446H333.31V232.251V233.056H410.579V232.251Z" fill="#80C0FF" mask="url(#path-73-inside-36_8308_1402)"/>
<mask id="path-75-inside-37_8308_1402" fill="white">
<path d="M410.578 154.982H487.847V232.251H410.578V154.982Z"/>
</mask>
<path d="M487.847 232.251V233.056H488.652V232.251H487.847ZM487.847 154.982H487.042V232.251H487.847H488.652V154.982H487.847ZM487.847 232.251V231.446H410.578V232.251V233.056H487.847V232.251Z" fill="#80C0FF" mask="url(#path-75-inside-37_8308_1402)"/>
<mask id="path-77-inside-38_8308_1402" fill="white">
<path d="M487.848 154.982H565.117V232.251H487.848V154.982Z"/>
</mask>
<path d="M487.848 154.982H565.117V232.251H487.848V154.982Z" fill="#4AA2FA"/>
<path d="M565.117 232.251V233.056H565.921V232.251H565.117ZM565.117 154.982H564.312V232.251H565.117H565.921V154.982H565.117ZM565.117 232.251V231.446H487.848V232.251V233.056H565.117V232.251Z" fill="#80C0FF" mask="url(#path-77-inside-38_8308_1402)"/>
<mask id="path-79-inside-39_8308_1402" fill="white">
<path d="M565.116 154.982H642.385V232.251H565.116V154.982Z"/>
</mask>
<path d="M642.385 232.251V233.056H643.19V232.251H642.385ZM642.385 154.982H641.58V232.251H642.385H643.19V154.982H642.385ZM642.385 232.251V231.446H565.116V232.251V233.056H642.385V232.251Z" fill="#80C0FF" mask="url(#path-79-inside-39_8308_1402)"/>
<mask id="path-81-inside-40_8308_1402" fill="white">
<path d="M642.386 154.982H719.655V232.251H642.386V154.982Z"/>
</mask>
<path d="M719.655 232.251V233.056H720.46V232.251H719.655ZM719.655 154.982H718.85V232.251H719.655H720.46V154.982H719.655ZM719.655 232.251V231.446H642.386V232.251V233.056H719.655V232.251Z" fill="#80C0FF" mask="url(#path-81-inside-40_8308_1402)"/>
<mask id="path-83-inside-41_8308_1402" fill="white">
<path d="M719.654 154.982H796.923V232.251H719.654V154.982Z"/>
</mask>
<path d="M796.923 232.251V233.056H797.728V232.251H796.923ZM796.923 154.982H796.118V232.251H796.923H797.728V154.982H796.923ZM796.923 232.251V231.446H719.654V232.251V233.056H796.923V232.251Z" fill="#80C0FF" mask="url(#path-83-inside-41_8308_1402)"/>
<mask id="path-85-inside-42_8308_1402" fill="white">
<path d="M796.923 154.982H874.192V232.251H796.923V154.982Z"/>
</mask>
<path d="M796.923 154.982H874.192V232.251H796.923V154.982Z" fill="#4AA2FA"/>
<path d="M874.192 232.251V233.056H874.997V232.251H874.192ZM874.192 154.982H873.387V232.251H874.192H874.997V154.982H874.192ZM874.192 232.251V231.446H796.923V232.251V233.056H874.192V232.251Z" fill="#80C0FF" mask="url(#path-85-inside-42_8308_1402)"/>
<mask id="path-87-inside-43_8308_1402" fill="white">
<path d="M874.192 154.982H951.461V232.251H874.192V154.982Z"/>
</mask>
<path d="M951.461 232.251V233.056H952.266V232.251H951.461ZM951.461 154.982H950.656V232.251H951.461H952.266V154.982H951.461ZM951.461 232.251V231.446H874.192V232.251V233.056H951.461V232.251Z" fill="#80C0FF" mask="url(#path-87-inside-43_8308_1402)"/>
<mask id="path-89-inside-44_8308_1402" fill="white">
<path d="M951.461 154.982H1028.73V232.251H951.461V154.982Z"/>
</mask>
<path d="M1028.73 232.251V233.056H1029.53V232.251H1028.73ZM1028.73 154.982H1027.92V232.251H1028.73H1029.53V154.982H1028.73ZM1028.73 232.251V231.446H951.461V232.251V233.056H1028.73V232.251Z" fill="#80C0FF" mask="url(#path-89-inside-44_8308_1402)"/>
<mask id="path-91-inside-45_8308_1402" fill="white">
<path d="M1028.73 154.982H1106V232.251H1028.73V154.982Z"/>
</mask>
<path d="M1106 232.251V233.056H1106.8V232.251H1106ZM1106 154.982H1105.19V232.251H1106H1106.8V154.982H1106ZM1106 232.251V231.446H1028.73V232.251V233.056H1106V232.251Z" fill="#80C0FF" mask="url(#path-91-inside-45_8308_1402)"/>
<mask id="path-93-inside-46_8308_1402" fill="white">
<path d="M1106 154.982H1183.27V232.251H1106V154.982Z"/>
</mask>
<path d="M1183.27 232.251V233.056H1184.07V232.251H1183.27ZM1183.27 154.982H1182.46V232.251H1183.27H1184.07V154.982H1183.27ZM1183.27 232.251V231.446H1106V232.251V233.056H1183.27V232.251Z" fill="#80C0FF" mask="url(#path-93-inside-46_8308_1402)"/>
<mask id="path-95-inside-47_8308_1402" fill="white">
<path d="M1183.27 154.982H1260.54V232.251H1183.27V154.982Z"/>
</mask>
<path d="M1260.54 232.251V233.056H1261.34V232.251H1260.54ZM1260.54 154.982H1259.73V232.251H1260.54H1261.34V154.982H1260.54ZM1260.54 232.251V231.446H1183.27V232.251V233.056H1260.54V232.251Z" fill="#80C0FF" mask="url(#path-95-inside-47_8308_1402)"/>
<mask id="path-97-inside-48_8308_1402" fill="white">
<path d="M1260.54 154.982H1337.81V232.251H1260.54V154.982Z"/>
</mask>
<path d="M1337.81 232.251V233.056H1338.61V232.251H1337.81ZM1337.81 154.982H1337V232.251H1337.81H1338.61V154.982H1337.81ZM1337.81 232.251V231.446H1260.54V232.251V233.056H1337.81V232.251Z" fill="#80C0FF" mask="url(#path-97-inside-48_8308_1402)"/>
<mask id="path-99-inside-49_8308_1402" fill="white">
<path d="M101.503 232.251H178.772V309.52H101.503V232.251Z"/>
</mask>
<path d="M101.503 232.251H178.772V309.52H101.503V232.251Z" fill="#4AA2FA"/>
<path d="M178.772 309.52V310.325H179.577V309.52H178.772ZM178.772 232.251H177.967V309.52H178.772H179.577V232.251H178.772ZM178.772 309.52V308.716H101.503V309.52V310.325H178.772V309.52Z" fill="#80C0FF" mask="url(#path-99-inside-49_8308_1402)"/>
<mask id="path-101-inside-50_8308_1402" fill="white">
<path d="M178.771 232.251H256.04V309.52H178.771V232.251Z"/>
</mask>
<path d="M256.04 309.52V310.325H256.845V309.52H256.04ZM256.04 232.251H255.236V309.52H256.04H256.845V232.251H256.04ZM256.04 309.52V308.716H178.771V309.52V310.325H256.04V309.52Z" fill="#80C0FF" mask="url(#path-101-inside-50_8308_1402)"/>
<mask id="path-103-inside-51_8308_1402" fill="white">
<path d="M256.041 232.251H333.31V309.52H256.041V232.251Z"/>
</mask>
<path d="M333.31 309.52V310.325H334.115V309.52H333.31ZM333.31 232.251H332.505V309.52H333.31H334.115V232.251H333.31ZM333.31 309.52V308.716H256.041V309.52V310.325H333.31V309.52Z" fill="#80C0FF" mask="url(#path-103-inside-51_8308_1402)"/>
<mask id="path-105-inside-52_8308_1402" fill="white">
<path d="M333.31 232.251H410.579V309.52H333.31V232.251Z"/>
</mask>
<path d="M410.579 309.52V310.325H411.383V309.52H410.579ZM410.579 232.251H409.774V309.52H410.579H411.383V232.251H410.579ZM410.579 309.52V308.716H333.31V309.52V310.325H410.579V309.52Z" fill="#80C0FF" mask="url(#path-105-inside-52_8308_1402)"/>
<mask id="path-107-inside-53_8308_1402" fill="white">
<path d="M410.578 232.251H487.847V309.52H410.578V232.251Z"/>
</mask>
<path d="M487.847 309.52V310.325H488.652V309.52H487.847ZM487.847 232.251H487.042V309.52H487.847H488.652V232.251H487.847ZM487.847 309.52V308.716H410.578V309.52V310.325H487.847V309.52Z" fill="#80C0FF" mask="url(#path-107-inside-53_8308_1402)"/>
<mask id="path-109-inside-54_8308_1402" fill="white">
<path d="M487.848 232.251H565.117V309.52H487.848V232.251Z"/>
</mask>
<path d="M565.117 309.52V310.325H565.921V309.52H565.117ZM565.117 232.251H564.312V309.52H565.117H565.921V232.251H565.117ZM565.117 309.52V308.716H487.848V309.52V310.325H565.117V309.52Z" fill="#80C0FF" mask="url(#path-109-inside-54_8308_1402)"/>
<mask id="path-111-inside-55_8308_1402" fill="white">
<path d="M565.116 232.251H642.385V309.52H565.116V232.251Z"/>
</mask>
<path d="M642.385 309.52V310.325H643.19V309.52H642.385ZM642.385 232.251H641.58V309.52H642.385H643.19V232.251H642.385ZM642.385 309.52V308.716H565.116V309.52V310.325H642.385V309.52Z" fill="#80C0FF" mask="url(#path-111-inside-55_8308_1402)"/>
<mask id="path-113-inside-56_8308_1402" fill="white">
<path d="M642.386 232.251H719.655V309.52H642.386V232.251Z"/>
</mask>
<path d="M719.655 309.52V310.325H720.46V309.52H719.655ZM719.655 232.251H718.85V309.52H719.655H720.46V232.251H719.655ZM719.655 309.52V308.716H642.386V309.52V310.325H719.655V309.52Z" fill="#80C0FF" mask="url(#path-113-inside-56_8308_1402)"/>
<mask id="path-115-inside-57_8308_1402" fill="white">
<path d="M719.654 232.251H796.923V309.52H719.654V232.251Z"/>
</mask>
<path d="M796.923 309.52V310.325H797.728V309.52H796.923ZM796.923 232.251H796.118V309.52H796.923H797.728V232.251H796.923ZM796.923 309.52V308.716H719.654V309.52V310.325H796.923V309.52Z" fill="#80C0FF" mask="url(#path-115-inside-57_8308_1402)"/>
<mask id="path-117-inside-58_8308_1402" fill="white">
<path d="M796.923 232.251H874.192V309.52H796.923V232.251Z"/>
</mask>
<path d="M874.192 309.52V310.325H874.997V309.52H874.192ZM874.192 232.251H873.387V309.52H874.192H874.997V232.251H874.192ZM874.192 309.52V308.716H796.923V309.52V310.325H874.192V309.52Z" fill="#80C0FF" mask="url(#path-117-inside-58_8308_1402)"/>
<mask id="path-119-inside-59_8308_1402" fill="white">
<path d="M874.192 232.251H951.461V309.52H874.192V232.251Z"/>
</mask>
<path d="M951.461 309.52V310.325H952.266V309.52H951.461ZM951.461 232.251H950.656V309.52H951.461H952.266V232.251H951.461ZM951.461 309.52V308.716H874.192V309.52V310.325H951.461V309.52Z" fill="#80C0FF" mask="url(#path-119-inside-59_8308_1402)"/>
<mask id="path-121-inside-60_8308_1402" fill="white">
<path d="M951.461 232.251H1028.73V309.52H951.461V232.251Z"/>
</mask>
<path d="M1028.73 309.52V310.325H1029.53V309.52H1028.73ZM1028.73 232.251H1027.92V309.52H1028.73H1029.53V232.251H1028.73ZM1028.73 309.52V308.716H951.461V309.52V310.325H1028.73V309.52Z" fill="#80C0FF" mask="url(#path-121-inside-60_8308_1402)"/>
<mask id="path-123-inside-61_8308_1402" fill="white">
<path d="M1028.73 232.251H1106V309.52H1028.73V232.251Z"/>
</mask>
<path d="M1028.73 232.251H1106V309.52H1028.73V232.251Z" fill="#4AA2FA"/>
<path d="M1106 309.52V310.325H1106.8V309.52H1106ZM1106 232.251H1105.19V309.52H1106H1106.8V232.251H1106ZM1106 309.52V308.716H1028.73V309.52V310.325H1106V309.52Z" fill="#80C0FF" mask="url(#path-123-inside-61_8308_1402)"/>
<mask id="path-125-inside-62_8308_1402" fill="white">
<path d="M1106 232.251H1183.27V309.52H1106V232.251Z"/>
</mask>
<path d="M1183.27 309.52V310.325H1184.07V309.52H1183.27ZM1183.27 232.251H1182.46V309.52H1183.27H1184.07V232.251H1183.27ZM1183.27 309.52V308.716H1106V309.52V310.325H1183.27V309.52Z" fill="#80C0FF" mask="url(#path-125-inside-62_8308_1402)"/>
<mask id="path-127-inside-63_8308_1402" fill="white">
<path d="M1183.27 232.251H1260.54V309.52H1183.27V232.251Z"/>
</mask>
<path d="M1260.54 309.52V310.325H1261.34V309.52H1260.54ZM1260.54 232.251H1259.73V309.52H1260.54H1261.34V232.251H1260.54ZM1260.54 309.52V308.716H1183.27V309.52V310.325H1260.54V309.52Z" fill="#80C0FF" mask="url(#path-127-inside-63_8308_1402)"/>
<mask id="path-129-inside-64_8308_1402" fill="white">
<path d="M1260.54 232.251H1337.81V309.52H1260.54V232.251Z"/>
</mask>
<path d="M1337.81 309.52V310.325H1338.61V309.52H1337.81ZM1337.81 232.251H1337V309.52H1337.81H1338.61V232.251H1337.81ZM1337.81 309.52V308.716H1260.54V309.52V310.325H1337.81V309.52Z" fill="#80C0FF" mask="url(#path-129-inside-64_8308_1402)"/>
<mask id="path-131-inside-65_8308_1402" fill="white">
<path d="M101.503 309.52H178.772V386.789H101.503V309.52Z"/>
</mask>
<path d="M178.772 386.789V387.594H179.577V386.789H178.772ZM178.772 309.52H177.967V386.789H178.772H179.577V309.52H178.772ZM178.772 386.789V385.984H101.503V386.789V387.594H178.772V386.789Z" fill="#80C0FF" mask="url(#path-131-inside-65_8308_1402)"/>
<mask id="path-133-inside-66_8308_1402" fill="white">
<path d="M178.771 309.52H256.04V386.789H178.771V309.52Z"/>
</mask>
<path d="M256.04 386.789V387.594H256.845V386.789H256.04ZM256.04 309.52H255.236V386.789H256.04H256.845V309.52H256.04ZM256.04 386.789V385.984H178.771V386.789V387.594H256.04V386.789Z" fill="#80C0FF" mask="url(#path-133-inside-66_8308_1402)"/>
<mask id="path-135-inside-67_8308_1402" fill="white">
<path d="M256.041 309.52H333.31V386.789H256.041V309.52Z"/>
</mask>
<path d="M333.31 386.789V387.594H334.115V386.789H333.31ZM333.31 309.52H332.505V386.789H333.31H334.115V309.52H333.31ZM333.31 386.789V385.984H256.041V386.789V387.594H333.31V386.789Z" fill="#80C0FF" mask="url(#path-135-inside-67_8308_1402)"/>
<mask id="path-137-inside-68_8308_1402" fill="white">
<path d="M333.31 309.52H410.579V386.789H333.31V309.52Z"/>
</mask>
<path d="M410.579 386.789V387.594H411.383V386.789H410.579ZM410.579 309.52H409.774V386.789H410.579H411.383V309.52H410.579ZM410.579 386.789V385.984H333.31V386.789V387.594H410.579V386.789Z" fill="#80C0FF" mask="url(#path-137-inside-68_8308_1402)"/>
<mask id="path-139-inside-69_8308_1402" fill="white">
<path d="M410.578 309.52H487.847V386.789H410.578V309.52Z"/>
</mask>
<path d="M487.847 386.789V387.594H488.652V386.789H487.847ZM487.847 309.52H487.042V386.789H487.847H488.652V309.52H487.847ZM487.847 386.789V385.984H410.578V386.789V387.594H487.847V386.789Z" fill="#80C0FF" mask="url(#path-139-inside-69_8308_1402)"/>
<mask id="path-141-inside-70_8308_1402" fill="white">
<path d="M487.848 309.52H565.117V386.789H487.848V309.52Z"/>
</mask>
<path d="M565.117 386.789V387.594H565.921V386.789H565.117ZM565.117 309.52H564.312V386.789H565.117H565.921V309.52H565.117ZM565.117 386.789V385.984H487.848V386.789V387.594H565.117V386.789Z" fill="#80C0FF" mask="url(#path-141-inside-70_8308_1402)"/>
<mask id="path-143-inside-71_8308_1402" fill="white">
<path d="M565.116 309.52H642.385V386.789H565.116V309.52Z"/>
</mask>
<path d="M565.116 309.52H642.385V386.789H565.116V309.52Z" fill="#4AA2FA"/>
<path d="M642.385 386.789V387.594H643.19V386.789H642.385ZM642.385 309.52H641.58V386.789H642.385H643.19V309.52H642.385ZM642.385 386.789V385.984H565.116V386.789V387.594H642.385V386.789Z" fill="#80C0FF" mask="url(#path-143-inside-71_8308_1402)"/>
<mask id="path-145-inside-72_8308_1402" fill="white">
<path d="M642.386 309.52H719.655V386.789H642.386V309.52Z"/>
</mask>
<path d="M719.655 386.789V387.594H720.46V386.789H719.655ZM719.655 309.52H718.85V386.789H719.655H720.46V309.52H719.655ZM719.655 386.789V385.984H642.386V386.789V387.594H719.655V386.789Z" fill="#80C0FF" mask="url(#path-145-inside-72_8308_1402)"/>
<mask id="path-147-inside-73_8308_1402" fill="white">
<path d="M719.654 309.52H796.923V386.789H719.654V309.52Z"/>
</mask>
<path d="M796.923 386.789V387.594H797.728V386.789H796.923ZM796.923 309.52H796.118V386.789H796.923H797.728V309.52H796.923ZM796.923 386.789V385.984H719.654V386.789V387.594H796.923V386.789Z" fill="#80C0FF" mask="url(#path-147-inside-73_8308_1402)"/>
<mask id="path-149-inside-74_8308_1402" fill="white">
<path d="M796.923 309.52H874.192V386.789H796.923V309.52Z"/>
</mask>
<path d="M874.192 386.789V387.594H874.997V386.789H874.192ZM874.192 309.52H873.387V386.789H874.192H874.997V309.52H874.192ZM874.192 386.789V385.984H796.923V386.789V387.594H874.192V386.789Z" fill="#80C0FF" mask="url(#path-149-inside-74_8308_1402)"/>
<mask id="path-151-inside-75_8308_1402" fill="white">
<path d="M874.192 309.52H951.461V386.789H874.192V309.52Z"/>
</mask>
<path d="M951.461 386.789V387.594H952.266V386.789H951.461ZM951.461 309.52H950.656V386.789H951.461H952.266V309.52H951.461ZM951.461 386.789V385.984H874.192V386.789V387.594H951.461V386.789Z" fill="#80C0FF" mask="url(#path-151-inside-75_8308_1402)"/>
<mask id="path-153-inside-76_8308_1402" fill="white">
<path d="M951.461 309.52H1028.73V386.789H951.461V309.52Z"/>
</mask>
<path d="M1028.73 386.789V387.594H1029.53V386.789H1028.73ZM1028.73 309.52H1027.92V386.789H1028.73H1029.53V309.52H1028.73ZM1028.73 386.789V385.984H951.461V386.789V387.594H1028.73V386.789Z" fill="#80C0FF" mask="url(#path-153-inside-76_8308_1402)"/>
<mask id="path-155-inside-77_8308_1402" fill="white">
<path d="M1028.73 309.52H1106V386.789H1028.73V309.52Z"/>
</mask>
<path d="M1106 386.789V387.594H1106.8V386.789H1106ZM1106 309.52H1105.19V386.789H1106H1106.8V309.52H1106ZM1106 386.789V385.984H1028.73V386.789V387.594H1106V386.789Z" fill="#80C0FF" mask="url(#path-155-inside-77_8308_1402)"/>
<mask id="path-157-inside-78_8308_1402" fill="white">
<path d="M1106 309.52H1183.27V386.789H1106V309.52Z"/>
</mask>
<path d="M1183.27 386.789V387.594H1184.07V386.789H1183.27ZM1183.27 309.52H1182.46V386.789H1183.27H1184.07V309.52H1183.27ZM1183.27 386.789V385.984H1106V386.789V387.594H1183.27V386.789Z" fill="#80C0FF" mask="url(#path-157-inside-78_8308_1402)"/>
<mask id="path-159-inside-79_8308_1402" fill="white">
<path d="M1183.27 309.52H1260.54V386.789H1183.27V309.52Z"/>
</mask>
<path d="M1260.54 386.789V387.594H1261.34V386.789H1260.54ZM1260.54 309.52H1259.73V386.789H1260.54H1261.34V309.52H1260.54ZM1260.54 386.789V385.984H1183.27V386.789V387.594H1260.54V386.789Z" fill="#80C0FF" mask="url(#path-159-inside-79_8308_1402)"/>
<mask id="path-161-inside-80_8308_1402" fill="white">
<path d="M1260.54 309.52H1337.81V386.789H1260.54V309.52Z"/>
</mask>
<path d="M1337.81 386.789V387.594H1338.61V386.789H1337.81ZM1337.81 309.52H1337V386.789H1337.81H1338.61V309.52H1337.81ZM1337.81 386.789V385.984H1260.54V386.789V387.594H1337.81V386.789Z" fill="#80C0FF" mask="url(#path-161-inside-80_8308_1402)"/>
<mask id="path-163-inside-81_8308_1402" fill="white">
<path d="M101.503 386.789H178.772V464.058H101.503V386.789Z"/>
</mask>
<path d="M178.772 464.058V464.863H179.577V464.058H178.772ZM178.772 386.789H177.967V464.058H178.772H179.577V386.789H178.772ZM178.772 464.058V463.253H101.503V464.058V464.863H178.772V464.058Z" fill="#80C0FF" mask="url(#path-163-inside-81_8308_1402)"/>
<mask id="path-165-inside-82_8308_1402" fill="white">
<path d="M178.771 386.789H256.04V464.058H178.771V386.789Z"/>
</mask>
<path d="M256.04 464.058V464.863H256.845V464.058H256.04ZM256.04 386.789H255.236V464.058H256.04H256.845V386.789H256.04ZM256.04 464.058V463.253H178.771V464.058V464.863H256.04V464.058Z" fill="#80C0FF" mask="url(#path-165-inside-82_8308_1402)"/>
<mask id="path-167-inside-83_8308_1402" fill="white">
<path d="M256.041 386.789H333.31V464.058H256.041V386.789Z"/>
</mask>
<path d="M333.31 464.058V464.863H334.115V464.058H333.31ZM333.31 386.789H332.505V464.058H333.31H334.115V386.789H333.31ZM333.31 464.058V463.253H256.041V464.058V464.863H333.31V464.058Z" fill="#80C0FF" mask="url(#path-167-inside-83_8308_1402)"/>
<mask id="path-169-inside-84_8308_1402" fill="white">
<path d="M333.31 386.789H410.579V464.058H333.31V386.789Z"/>
</mask>
<path d="M333.31 386.789H410.579V464.058H333.31V386.789Z" fill="#4AA2FA"/>
<path d="M410.579 464.058V464.863H411.383V464.058H410.579ZM410.579 386.789H409.774V464.058H410.579H411.383V386.789H410.579ZM410.579 464.058V463.253H333.31V464.058V464.863H410.579V464.058Z" fill="#80C0FF" mask="url(#path-169-inside-84_8308_1402)"/>
<mask id="path-171-inside-85_8308_1402" fill="white">
<path d="M410.578 386.789H487.847V464.058H410.578V386.789Z"/>
</mask>
<path d="M487.847 464.058V464.863H488.652V464.058H487.847ZM487.847 386.789H487.042V464.058H487.847H488.652V386.789H487.847ZM487.847 464.058V463.253H410.578V464.058V464.863H487.847V464.058Z" fill="#80C0FF" mask="url(#path-171-inside-85_8308_1402)"/>
<mask id="path-173-inside-86_8308_1402" fill="white">
<path d="M487.848 386.789H565.117V464.058H487.848V386.789Z"/>
</mask>
<path d="M565.117 464.058V464.863H565.921V464.058H565.117ZM565.117 386.789H564.312V464.058H565.117H565.921V386.789H565.117ZM565.117 464.058V463.253H487.848V464.058V464.863H565.117V464.058Z" fill="#80C0FF" mask="url(#path-173-inside-86_8308_1402)"/>
<mask id="path-175-inside-87_8308_1402" fill="white">
<path d="M565.116 386.789H642.385V464.058H565.116V386.789Z"/>
</mask>
<path d="M642.385 464.058V464.863H643.19V464.058H642.385ZM642.385 386.789H641.58V464.058H642.385H643.19V386.789H642.385ZM642.385 464.058V463.253H565.116V464.058V464.863H642.385V464.058Z" fill="#80C0FF" mask="url(#path-175-inside-87_8308_1402)"/>
<mask id="path-177-inside-88_8308_1402" fill="white">
<path d="M642.386 386.789H719.655V464.058H642.386V386.789Z"/>
</mask>
<path d="M719.655 464.058V464.863H720.46V464.058H719.655ZM719.655 386.789H718.85V464.058H719.655H720.46V386.789H719.655ZM719.655 464.058V463.253H642.386V464.058V464.863H719.655V464.058Z" fill="#80C0FF" mask="url(#path-177-inside-88_8308_1402)"/>
<mask id="path-179-inside-89_8308_1402" fill="white">
<path d="M719.654 386.789H796.923V464.058H719.654V386.789Z"/>
</mask>
<path d="M796.923 464.058V464.863H797.728V464.058H796.923ZM796.923 386.789H796.118V464.058H796.923H797.728V386.789H796.923ZM796.923 464.058V463.253H719.654V464.058V464.863H796.923V464.058Z" fill="#80C0FF" mask="url(#path-179-inside-89_8308_1402)"/>
<mask id="path-181-inside-90_8308_1402" fill="white">
<path d="M796.923 386.789H874.192V464.058H796.923V386.789Z"/>
</mask>
<path d="M796.923 386.789H874.192V464.058H796.923V386.789Z" fill="#4AA2FA"/>
<path d="M874.192 464.058V464.863H874.997V464.058H874.192ZM874.192 386.789H873.387V464.058H874.192H874.997V386.789H874.192ZM874.192 464.058V463.253H796.923V464.058V464.863H874.192V464.058Z" fill="#80C0FF" mask="url(#path-181-inside-90_8308_1402)"/>
<mask id="path-183-inside-91_8308_1402" fill="white">
<path d="M874.192 386.789H951.461V464.058H874.192V386.789Z"/>
</mask>
<path d="M951.461 464.058V464.863H952.266V464.058H951.461ZM951.461 386.789H950.656V464.058H951.461H952.266V386.789H951.461ZM951.461 464.058V463.253H874.192V464.058V464.863H951.461V464.058Z" fill="#80C0FF" mask="url(#path-183-inside-91_8308_1402)"/>
<mask id="path-185-inside-92_8308_1402" fill="white">
<path d="M951.461 386.789H1028.73V464.058H951.461V386.789Z"/>
</mask>
<path d="M1028.73 464.058V464.863H1029.53V464.058H1028.73ZM1028.73 386.789H1027.92V464.058H1028.73H1029.53V386.789H1028.73ZM1028.73 464.058V463.253H951.461V464.058V464.863H1028.73V464.058Z" fill="#80C0FF" mask="url(#path-185-inside-92_8308_1402)"/>
<mask id="path-187-inside-93_8308_1402" fill="white">
<path d="M1028.73 386.789H1106V464.058H1028.73V386.789Z"/>
</mask>
<path d="M1106 464.058V464.863H1106.8V464.058H1106ZM1106 386.789H1105.19V464.058H1106H1106.8V386.789H1106ZM1106 464.058V463.253H1028.73V464.058V464.863H1106V464.058Z" fill="#80C0FF" mask="url(#path-187-inside-93_8308_1402)"/>
<mask id="path-189-inside-94_8308_1402" fill="white">
<path d="M1106 386.789H1183.27V464.058H1106V386.789Z"/>
</mask>
<path d="M1183.27 464.058V464.863H1184.07V464.058H1183.27ZM1183.27 386.789H1182.46V464.058H1183.27H1184.07V386.789H1183.27ZM1183.27 464.058V463.253H1106V464.058V464.863H1183.27V464.058Z" fill="#80C0FF" mask="url(#path-189-inside-94_8308_1402)"/>
<mask id="path-191-inside-95_8308_1402" fill="white">
<path d="M1183.27 386.789H1260.54V464.058H1183.27V386.789Z"/>
</mask>
<path d="M1260.54 464.058V464.863H1261.34V464.058H1260.54ZM1260.54 386.789H1259.73V464.058H1260.54H1261.34V386.789H1260.54ZM1260.54 464.058V463.253H1183.27V464.058V464.863H1260.54V464.058Z" fill="#80C0FF" mask="url(#path-191-inside-95_8308_1402)"/>
<mask id="path-193-inside-96_8308_1402" fill="white">
<path d="M1260.54 386.789H1337.81V464.058H1260.54V386.789Z"/>
</mask>
<path d="M1337.81 464.058V464.863H1338.61V464.058H1337.81ZM1337.81 386.789H1337V464.058H1337.81H1338.61V386.789H1337.81ZM1337.81 464.058V463.253H1260.54V464.058V464.863H1337.81V464.058Z" fill="#80C0FF" mask="url(#path-193-inside-96_8308_1402)"/>
<mask id="path-195-inside-97_8308_1402" fill="white">
<path d="M101.503 464.058H178.772V541.327H101.503V464.058Z"/>
</mask>
<path d="M178.772 541.327V542.132H179.577V541.327H178.772ZM178.772 464.058H177.967V541.327H178.772H179.577V464.058H178.772ZM178.772 541.327V540.522H101.503V541.327V542.132H178.772V541.327Z" fill="#80C0FF" mask="url(#path-195-inside-97_8308_1402)"/>
<mask id="path-197-inside-98_8308_1402" fill="white">
<path d="M178.771 464.058H256.04V541.327H178.771V464.058Z"/>
</mask>
<path d="M178.771 464.058H256.04V541.327H178.771V464.058Z" fill="#4AA2FA"/>
<path d="M256.04 541.327V542.132H256.845V541.327H256.04ZM256.04 464.058H255.236V541.327H256.04H256.845V464.058H256.04ZM256.04 541.327V540.522H178.771V541.327V542.132H256.04V541.327Z" fill="#80C0FF" mask="url(#path-197-inside-98_8308_1402)"/>
<mask id="path-199-inside-99_8308_1402" fill="white">
<path d="M256.041 464.058H333.31V541.327H256.041V464.058Z"/>
</mask>
<path d="M333.31 541.327V542.132H334.115V541.327H333.31ZM333.31 464.058H332.505V541.327H333.31H334.115V464.058H333.31ZM333.31 541.327V540.522H256.041V541.327V542.132H333.31V541.327Z" fill="#80C0FF" mask="url(#path-199-inside-99_8308_1402)"/>
<mask id="path-201-inside-100_8308_1402" fill="white">
<path d="M333.31 464.058H410.579V541.327H333.31V464.058Z"/>
</mask>
<path d="M410.579 541.327V542.132H411.383V541.327H410.579ZM410.579 464.058H409.774V541.327H410.579H411.383V464.058H410.579ZM410.579 541.327V540.522H333.31V541.327V542.132H410.579V541.327Z" fill="#80C0FF" mask="url(#path-201-inside-100_8308_1402)"/>
<mask id="path-203-inside-101_8308_1402" fill="white">
<path d="M410.578 464.058H487.847V541.327H410.578V464.058Z"/>
</mask>
<path d="M487.847 541.327V542.132H488.652V541.327H487.847ZM487.847 464.058H487.042V541.327H487.847H488.652V464.058H487.847ZM487.847 541.327V540.522H410.578V541.327V542.132H487.847V541.327Z" fill="#80C0FF" mask="url(#path-203-inside-101_8308_1402)"/>
<mask id="path-205-inside-102_8308_1402" fill="white">
<path d="M487.848 464.058H565.117V541.327H487.848V464.058Z"/>
</mask>
<path d="M565.117 541.327V542.132H565.921V541.327H565.117ZM565.117 464.058H564.312V541.327H565.117H565.921V464.058H565.117ZM565.117 541.327V540.522H487.848V541.327V542.132H565.117V541.327Z" fill="#80C0FF" mask="url(#path-205-inside-102_8308_1402)"/>
<mask id="path-207-inside-103_8308_1402" fill="white">
<path d="M565.116 464.058H642.385V541.327H565.116V464.058Z"/>
</mask>
<path d="M642.385 541.327V542.132H643.19V541.327H642.385ZM642.385 464.058H641.58V541.327H642.385H643.19V464.058H642.385ZM642.385 541.327V540.522H565.116V541.327V542.132H642.385V541.327Z" fill="#80C0FF" mask="url(#path-207-inside-103_8308_1402)"/>
<mask id="path-209-inside-104_8308_1402" fill="white">
<path d="M642.386 464.058H719.655V541.327H642.386V464.058Z"/>
</mask>
<path d="M719.655 541.327V542.132H720.46V541.327H719.655ZM719.655 464.058H718.85V541.327H719.655H720.46V464.058H719.655ZM719.655 541.327V540.522H642.386V541.327V542.132H719.655V541.327Z" fill="#80C0FF" mask="url(#path-209-inside-104_8308_1402)"/>
<mask id="path-211-inside-105_8308_1402" fill="white">
<path d="M719.654 464.058H796.923V541.327H719.654V464.058Z"/>
</mask>
<path d="M796.923 541.327V542.132H797.728V541.327H796.923ZM796.923 464.058H796.118V541.327H796.923H797.728V464.058H796.923ZM796.923 541.327V540.522H719.654V541.327V542.132H796.923V541.327Z" fill="#80C0FF" mask="url(#path-211-inside-105_8308_1402)"/>
<mask id="path-213-inside-106_8308_1402" fill="white">
<path d="M796.923 464.058H874.192V541.327H796.923V464.058Z"/>
</mask>
<path d="M874.192 541.327V542.132H874.997V541.327H874.192ZM874.192 464.058H873.387V541.327H874.192H874.997V464.058H874.192ZM874.192 541.327V540.522H796.923V541.327V542.132H874.192V541.327Z" fill="#80C0FF" mask="url(#path-213-inside-106_8308_1402)"/>
<mask id="path-215-inside-107_8308_1402" fill="white">
<path d="M874.192 464.058H951.461V541.327H874.192V464.058Z"/>
</mask>
<path d="M951.461 541.327V542.132H952.266V541.327H951.461ZM951.461 464.058H950.656V541.327H951.461H952.266V464.058H951.461ZM951.461 541.327V540.522H874.192V541.327V542.132H951.461V541.327Z" fill="#80C0FF" mask="url(#path-215-inside-107_8308_1402)"/>
<mask id="path-217-inside-108_8308_1402" fill="white">
<path d="M951.461 464.058H1028.73V541.327H951.461V464.058Z"/>
</mask>
<path d="M1028.73 541.327V542.132H1029.53V541.327H1028.73ZM1028.73 464.058H1027.92V541.327H1028.73H1029.53V464.058H1028.73ZM1028.73 541.327V540.522H951.461V541.327V542.132H1028.73V541.327Z" fill="#80C0FF" mask="url(#path-217-inside-108_8308_1402)"/>
<mask id="path-219-inside-109_8308_1402" fill="white">
<path d="M1028.73 464.058H1106V541.327H1028.73V464.058Z"/>
</mask>
<path d="M1106 541.327V542.132H1106.8V541.327H1106ZM1106 464.058H1105.19V541.327H1106H1106.8V464.058H1106ZM1106 541.327V540.522H1028.73V541.327V542.132H1106V541.327Z" fill="#80C0FF" mask="url(#path-219-inside-109_8308_1402)"/>
<mask id="path-221-inside-110_8308_1402" fill="white">
<path d="M1106 464.058H1183.27V541.327H1106V464.058Z"/>
</mask>
<path d="M1183.27 541.327V542.132H1184.07V541.327H1183.27ZM1183.27 464.058H1182.46V541.327H1183.27H1184.07V464.058H1183.27ZM1183.27 541.327V540.522H1106V541.327V542.132H1183.27V541.327Z" fill="#80C0FF" mask="url(#path-221-inside-110_8308_1402)"/>
<mask id="path-223-inside-111_8308_1402" fill="white">
<path d="M1183.27 464.058H1260.54V541.327H1183.27V464.058Z"/>
</mask>
<path d="M1183.27 464.058H1260.54V541.327H1183.27V464.058Z" fill="#4AA2FA"/>
<path d="M1260.54 541.327V542.132H1261.34V541.327H1260.54ZM1260.54 464.058H1259.73V541.327H1260.54H1261.34V464.058H1260.54ZM1260.54 541.327V540.522H1183.27V541.327V542.132H1260.54V541.327Z" fill="#80C0FF" mask="url(#path-223-inside-111_8308_1402)"/>
<mask id="path-225-inside-112_8308_1402" fill="white">
<path d="M1260.54 464.058H1337.81V541.327H1260.54V464.058Z"/>
</mask>
<path d="M1337.81 541.327V542.132H1338.61V541.327H1337.81ZM1337.81 464.058H1337V541.327H1337.81H1338.61V464.058H1337.81ZM1337.81 541.327V540.522H1260.54V541.327V542.132H1337.81V541.327Z" fill="#80C0FF" mask="url(#path-225-inside-112_8308_1402)"/>
<mask id="path-227-inside-113_8308_1402" fill="white">
<path d="M101.503 541.327H178.772V618.596H101.503V541.327Z"/>
</mask>
<path d="M178.772 618.596V619.401H179.577V618.596H178.772ZM178.772 541.327H177.967V618.596H178.772H179.577V541.327H178.772ZM178.772 618.596V617.791H101.503V618.596V619.401H178.772V618.596Z" fill="#80C0FF" mask="url(#path-227-inside-113_8308_1402)"/>
<mask id="path-229-inside-114_8308_1402" fill="white">
<path d="M178.771 541.327H256.04V618.596H178.771V541.327Z"/>
</mask>
<path d="M256.04 618.596V619.401H256.845V618.596H256.04ZM256.04 541.327H255.236V618.596H256.04H256.845V541.327H256.04ZM256.04 618.596V617.791H178.771V618.596V619.401H256.04V618.596Z" fill="#80C0FF" mask="url(#path-229-inside-114_8308_1402)"/>
<mask id="path-231-inside-115_8308_1402" fill="white">
<path d="M256.041 541.327H333.31V618.596H256.041V541.327Z"/>
</mask>
<path d="M333.31 618.596V619.401H334.115V618.596H333.31ZM333.31 541.327H332.505V618.596H333.31H334.115V541.327H333.31ZM333.31 618.596V617.791H256.041V618.596V619.401H333.31V618.596Z" fill="#80C0FF" mask="url(#path-231-inside-115_8308_1402)"/>
<mask id="path-233-inside-116_8308_1402" fill="white">
<path d="M333.31 541.327H410.579V618.596H333.31V541.327Z"/>
</mask>
<path d="M410.579 618.596V619.401H411.383V618.596H410.579ZM410.579 541.327H409.774V618.596H410.579H411.383V541.327H410.579ZM410.579 618.596V617.791H333.31V618.596V619.401H410.579V618.596Z" fill="#80C0FF" mask="url(#path-233-inside-116_8308_1402)"/>
<mask id="path-235-inside-117_8308_1402" fill="white">
<path d="M410.578 541.327H487.847V618.596H410.578V541.327Z"/>
</mask>
<path d="M487.847 618.596V619.401H488.652V618.596H487.847ZM487.847 541.327H487.042V618.596H487.847H488.652V541.327H487.847ZM487.847 618.596V617.791H410.578V618.596V619.401H487.847V618.596Z" fill="#80C0FF" mask="url(#path-235-inside-117_8308_1402)"/>
<mask id="path-237-inside-118_8308_1402" fill="white">
<path d="M487.848 541.327H565.117V618.596H487.848V541.327Z"/>
</mask>
<path d="M565.117 618.596V619.401H565.921V618.596H565.117ZM565.117 541.327H564.312V618.596H565.117H565.921V541.327H565.117ZM565.117 618.596V617.791H487.848V618.596V619.401H565.117V618.596Z" fill="#80C0FF" mask="url(#path-237-inside-118_8308_1402)"/>
<mask id="path-239-inside-119_8308_1402" fill="white">
<path d="M565.116 541.327H642.385V618.596H565.116V541.327Z"/>
</mask>
<path d="M565.116 541.327H642.385V618.596H565.116V541.327Z" fill="#4AA2FA"/>
<path d="M642.385 618.596V619.401H643.19V618.596H642.385ZM642.385 541.327H641.58V618.596H642.385H643.19V541.327H642.385ZM642.385 618.596V617.791H565.116V618.596V619.401H642.385V618.596Z" fill="#80C0FF" mask="url(#path-239-inside-119_8308_1402)"/>
<mask id="path-241-inside-120_8308_1402" fill="white">
<path d="M642.386 541.327H719.655V618.596H642.386V541.327Z"/>
</mask>
<path d="M719.655 618.596V619.401H720.46V618.596H719.655ZM719.655 541.327H718.85V618.596H719.655H720.46V541.327H719.655ZM719.655 618.596V617.791H642.386V618.596V619.401H719.655V618.596Z" fill="#80C0FF" mask="url(#path-241-inside-120_8308_1402)"/>
<mask id="path-243-inside-121_8308_1402" fill="white">
<path d="M719.654 541.327H796.923V618.596H719.654V541.327Z"/>
</mask>
<path d="M796.923 618.596V619.401H797.728V618.596H796.923ZM796.923 541.327H796.118V618.596H796.923H797.728V541.327H796.923ZM796.923 618.596V617.791H719.654V618.596V619.401H796.923V618.596Z" fill="#80C0FF" mask="url(#path-243-inside-121_8308_1402)"/>
<mask id="path-245-inside-122_8308_1402" fill="white">
<path d="M796.923 541.327H874.192V618.596H796.923V541.327Z"/>
</mask>
<path d="M874.192 618.596V619.401H874.997V618.596H874.192ZM874.192 541.327H873.387V618.596H874.192H874.997V541.327H874.192ZM874.192 618.596V617.791H796.923V618.596V619.401H874.192V618.596Z" fill="#80C0FF" mask="url(#path-245-inside-122_8308_1402)"/>
<mask id="path-247-inside-123_8308_1402" fill="white">
<path d="M874.192 541.327H951.461V618.596H874.192V541.327Z"/>
</mask>
<path d="M951.461 618.596V619.401H952.266V618.596H951.461ZM951.461 541.327H950.656V618.596H951.461H952.266V541.327H951.461ZM951.461 618.596V617.791H874.192V618.596V619.401H951.461V618.596Z" fill="#80C0FF" mask="url(#path-247-inside-123_8308_1402)"/>
<mask id="path-249-inside-124_8308_1402" fill="white">
<path d="M951.461 541.327H1028.73V618.596H951.461V541.327Z"/>
</mask>
<path d="M1028.73 618.596V619.401H1029.53V618.596H1028.73ZM1028.73 541.327H1027.92V618.596H1028.73H1029.53V541.327H1028.73ZM1028.73 618.596V617.791H951.461V618.596V619.401H1028.73V618.596Z" fill="#80C0FF" mask="url(#path-249-inside-124_8308_1402)"/>
<mask id="path-251-inside-125_8308_1402" fill="white">
<path d="M1028.73 541.327H1106V618.596H1028.73V541.327Z"/>
</mask>
<path d="M1028.73 541.327H1106V618.596H1028.73V541.327Z" fill="#4AA2FA"/>
<path d="M1106 618.596V619.401H1106.8V618.596H1106ZM1106 541.327H1105.19V618.596H1106H1106.8V541.327H1106ZM1106 618.596V617.791H1028.73V618.596V619.401H1106V618.596Z" fill="#80C0FF" mask="url(#path-251-inside-125_8308_1402)"/>
<mask id="path-253-inside-126_8308_1402" fill="white">
<path d="M1106 541.327H1183.27V618.596H1106V541.327Z"/>
</mask>
<path d="M1183.27 618.596V619.401H1184.07V618.596H1183.27ZM1183.27 541.327H1182.46V618.596H1183.27H1184.07V541.327H1183.27ZM1183.27 618.596V617.791H1106V618.596V619.401H1183.27V618.596Z" fill="#80C0FF" mask="url(#path-253-inside-126_8308_1402)"/>
<mask id="path-255-inside-127_8308_1402" fill="white">
<path d="M1183.27 541.327H1260.54V618.596H1183.27V541.327Z"/>
</mask>
<path d="M1260.54 618.596V619.401H1261.34V618.596H1260.54ZM1260.54 541.327H1259.73V618.596H1260.54H1261.34V541.327H1260.54ZM1260.54 618.596V617.791H1183.27V618.596V619.401H1260.54V618.596Z" fill="#80C0FF" mask="url(#path-255-inside-127_8308_1402)"/>
<mask id="path-257-inside-128_8308_1402" fill="white">
<path d="M1260.54 541.327H1337.81V618.596H1260.54V541.327Z"/>
</mask>
<path d="M1337.81 618.596V619.401H1338.61V618.596H1337.81ZM1337.81 541.327H1337V618.596H1337.81H1338.61V541.327H1337.81ZM1337.81 618.596V617.791H1260.54V618.596V619.401H1337.81V618.596Z" fill="#80C0FF" mask="url(#path-257-inside-128_8308_1402)"/>
<mask id="path-259-inside-129_8308_1402" fill="white">
<path d="M101.503 618.596H178.772V695.865H101.503V618.596Z"/>
</mask>
<path d="M178.772 695.865V696.67H179.577V695.865H178.772ZM178.772 618.596H177.967V695.865H178.772H179.577V618.596H178.772ZM178.772 695.865V695.06H101.503V695.865V696.67H178.772V695.865Z" fill="#80C0FF" mask="url(#path-259-inside-129_8308_1402)"/>
<mask id="path-261-inside-130_8308_1402" fill="white">
<path d="M178.771 618.596H256.04V695.865H178.771V618.596Z"/>
</mask>
<path d="M256.04 695.865V696.67H256.845V695.865H256.04ZM256.04 618.596H255.236V695.865H256.04H256.845V618.596H256.04ZM256.04 695.865V695.06H178.771V695.865V696.67H256.04V695.865Z" fill="#80C0FF" mask="url(#path-261-inside-130_8308_1402)"/>
<mask id="path-263-inside-131_8308_1402" fill="white">
<path d="M256.041 618.596H333.31V695.865H256.041V618.596Z"/>
</mask>
<path d="M333.31 695.865V696.67H334.115V695.865H333.31ZM333.31 618.596H332.505V695.865H333.31H334.115V618.596H333.31ZM333.31 695.865V695.06H256.041V695.865V696.67H333.31V695.865Z" fill="#80C0FF" mask="url(#path-263-inside-131_8308_1402)"/>
<mask id="path-265-inside-132_8308_1402" fill="white">
<path d="M333.31 618.596H410.579V695.865H333.31V618.596Z"/>
</mask>
<path d="M333.31 618.596H410.579V695.865H333.31V618.596Z" fill="#4AA2FA"/>
<path d="M410.579 695.865V696.67H411.383V695.865H410.579ZM410.579 618.596H409.774V695.865H410.579H411.383V618.596H410.579ZM410.579 695.865V695.06H333.31V695.865V696.67H410.579V695.865Z" fill="#80C0FF" mask="url(#path-265-inside-132_8308_1402)"/>
<mask id="path-267-inside-133_8308_1402" fill="white">
<path d="M410.578 618.596H487.847V695.865H410.578V618.596Z"/>
</mask>
<path d="M487.847 695.865V696.67H488.652V695.865H487.847ZM487.847 618.596H487.042V695.865H487.847H488.652V618.596H487.847ZM487.847 695.865V695.06H410.578V695.865V696.67H487.847V695.865Z" fill="#80C0FF" mask="url(#path-267-inside-133_8308_1402)"/>
<mask id="path-269-inside-134_8308_1402" fill="white">
<path d="M487.848 618.596H565.117V695.865H487.848V618.596Z"/>
</mask>
<path d="M565.117 695.865V696.67H565.921V695.865H565.117ZM565.117 618.596H564.312V695.865H565.117H565.921V618.596H565.117ZM565.117 695.865V695.06H487.848V695.865V696.67H565.117V695.865Z" fill="#80C0FF" mask="url(#path-269-inside-134_8308_1402)"/>
<mask id="path-271-inside-135_8308_1402" fill="white">
<path d="M565.116 618.596H642.385V695.865H565.116V618.596Z"/>
</mask>
<path d="M642.385 695.865V696.67H643.19V695.865H642.385ZM642.385 618.596H641.58V695.865H642.385H643.19V618.596H642.385ZM642.385 695.865V695.06H565.116V695.865V696.67H642.385V695.865Z" fill="#80C0FF" mask="url(#path-271-inside-135_8308_1402)"/>
<mask id="path-273-inside-136_8308_1402" fill="white">
<path d="M642.386 618.596H719.655V695.865H642.386V618.596Z"/>
</mask>
<path d="M719.655 695.865V696.67H720.46V695.865H719.655ZM719.655 618.596H718.85V695.865H719.655H720.46V618.596H719.655ZM719.655 695.865V695.06H642.386V695.865V696.67H719.655V695.865Z" fill="#80C0FF" mask="url(#path-273-inside-136_8308_1402)"/>
<mask id="path-275-inside-137_8308_1402" fill="white">
<path d="M719.654 618.596H796.923V695.865H719.654V618.596Z"/>
</mask>
<path d="M796.923 695.865V696.67H797.728V695.865H796.923ZM796.923 618.596H796.118V695.865H796.923H797.728V618.596H796.923ZM796.923 695.865V695.06H719.654V695.865V696.67H796.923V695.865Z" fill="#80C0FF" mask="url(#path-275-inside-137_8308_1402)"/>
<mask id="path-277-inside-138_8308_1402" fill="white">
<path d="M796.923 618.596H874.192V695.865H796.923V618.596Z"/>
</mask>
<path d="M796.923 618.596H874.192V695.865H796.923V618.596Z" fill="#4AA2FA"/>
<path d="M874.192 695.865V696.67H874.997V695.865H874.192ZM874.192 618.596H873.387V695.865H874.192H874.997V618.596H874.192ZM874.192 695.865V695.06H796.923V695.865V696.67H874.192V695.865Z" fill="#80C0FF" mask="url(#path-277-inside-138_8308_1402)"/>
<mask id="path-279-inside-139_8308_1402" fill="white">
<path d="M874.192 618.596H951.461V695.865H874.192V618.596Z"/>
</mask>
<path d="M951.461 695.865V696.67H952.266V695.865H951.461ZM951.461 618.596H950.656V695.865H951.461H952.266V618.596H951.461ZM951.461 695.865V695.06H874.192V695.865V696.67H951.461V695.865Z" fill="#80C0FF" mask="url(#path-279-inside-139_8308_1402)"/>
<mask id="path-281-inside-140_8308_1402" fill="white">
<path d="M951.461 618.596H1028.73V695.865H951.461V618.596Z"/>
</mask>
<path d="M1028.73 695.865V696.67H1029.53V695.865H1028.73ZM1028.73 618.596H1027.92V695.865H1028.73H1029.53V618.596H1028.73ZM1028.73 695.865V695.06H951.461V695.865V696.67H1028.73V695.865Z" fill="#80C0FF" mask="url(#path-281-inside-140_8308_1402)"/>
<mask id="path-283-inside-141_8308_1402" fill="white">
<path d="M1028.73 618.596H1106V695.865H1028.73V618.596Z"/>
</mask>
<path d="M1106 695.865V696.67H1106.8V695.865H1106ZM1106 618.596H1105.19V695.865H1106H1106.8V618.596H1106ZM1106 695.865V695.06H1028.73V695.865V696.67H1106V695.865Z" fill="#80C0FF" mask="url(#path-283-inside-141_8308_1402)"/>
<mask id="path-285-inside-142_8308_1402" fill="white">
<path d="M1106 618.596H1183.27V695.865H1106V618.596Z"/>
</mask>
<path d="M1183.27 695.865V696.67H1184.07V695.865H1183.27ZM1183.27 618.596H1182.46V695.865H1183.27H1184.07V618.596H1183.27ZM1183.27 695.865V695.06H1106V695.865V696.67H1183.27V695.865Z" fill="#80C0FF" mask="url(#path-285-inside-142_8308_1402)"/>
<mask id="path-287-inside-143_8308_1402" fill="white">
<path d="M1183.27 618.596H1260.54V695.865H1183.27V618.596Z"/>
</mask>
<path d="M1260.54 695.865V696.67H1261.34V695.865H1260.54ZM1260.54 618.596H1259.73V695.865H1260.54H1261.34V618.596H1260.54ZM1260.54 695.865V695.06H1183.27V695.865V696.67H1260.54V695.865Z" fill="#80C0FF" mask="url(#path-287-inside-143_8308_1402)"/>
<mask id="path-289-inside-144_8308_1402" fill="white">
<path d="M1260.54 618.596H1337.81V695.865H1260.54V618.596Z"/>
</mask>
<path d="M1337.81 695.865V696.67H1338.61V695.865H1337.81ZM1337.81 618.596H1337V695.865H1337.81H1338.61V618.596H1337.81ZM1337.81 695.865V695.06H1260.54V695.865V696.67H1337.81V695.865Z" fill="#80C0FF" mask="url(#path-289-inside-144_8308_1402)"/>
<mask id="path-291-inside-145_8308_1402" fill="white">
<path d="M101.503 695.865H178.772V773.134H101.503V695.865Z"/>
</mask>
<path d="M178.772 773.134V773.939H179.577V773.134H178.772ZM178.772 695.865H177.967V773.134H178.772H179.577V695.865H178.772ZM178.772 773.134V772.329H101.503V773.134V773.939H178.772V773.134Z" fill="#80C0FF" mask="url(#path-291-inside-145_8308_1402)"/>
<mask id="path-293-inside-146_8308_1402" fill="white">
<path d="M178.771 695.865H256.04V773.134H178.771V695.865Z"/>
</mask>
<path d="M256.04 773.134V773.939H256.845V773.134H256.04ZM256.04 695.865H255.236V773.134H256.04H256.845V695.865H256.04ZM256.04 773.134V772.329H178.771V773.134V773.939H256.04V773.134Z" fill="#80C0FF" mask="url(#path-293-inside-146_8308_1402)"/>
<mask id="path-295-inside-147_8308_1402" fill="white">
<path d="M256.041 695.865H333.31V773.134H256.041V695.865Z"/>
</mask>
<path d="M333.31 773.134V773.939H334.115V773.134H333.31ZM333.31 695.865H332.505V773.134H333.31H334.115V695.865H333.31ZM333.31 773.134V772.329H256.041V773.134V773.939H333.31V773.134Z" fill="#80C0FF" mask="url(#path-295-inside-147_8308_1402)"/>
<mask id="path-297-inside-148_8308_1402" fill="white">
<path d="M333.31 695.865H410.579V773.134H333.31V695.865Z"/>
</mask>
<path d="M410.579 773.134V773.939H411.383V773.134H410.579ZM410.579 695.865H409.774V773.134H410.579H411.383V695.865H410.579ZM410.579 773.134V772.329H333.31V773.134V773.939H410.579V773.134Z" fill="#80C0FF" mask="url(#path-297-inside-148_8308_1402)"/>
<mask id="path-299-inside-149_8308_1402" fill="white">
<path d="M410.578 695.865H487.847V773.134H410.578V695.865Z"/>
</mask>
<path d="M487.847 773.134V773.939H488.652V773.134H487.847ZM487.847 695.865H487.042V773.134H487.847H488.652V695.865H487.847ZM487.847 773.134V772.329H410.578V773.134V773.939H487.847V773.134Z" fill="#80C0FF" mask="url(#path-299-inside-149_8308_1402)"/>
<mask id="path-301-inside-150_8308_1402" fill="white">
<path d="M487.848 695.865H565.117V773.134H487.848V695.865Z"/>
</mask>
<path d="M565.117 773.134V773.939H565.921V773.134H565.117ZM565.117 695.865H564.312V773.134H565.117H565.921V695.865H565.117ZM565.117 773.134V772.329H487.848V773.134V773.939H565.117V773.134Z" fill="#80C0FF" mask="url(#path-301-inside-150_8308_1402)"/>
<mask id="path-303-inside-151_8308_1402" fill="white">
<path d="M565.116 695.865H642.385V773.134H565.116V695.865Z"/>
</mask>
<path d="M642.385 773.134V773.939H643.19V773.134H642.385ZM642.385 695.865H641.58V773.134H642.385H643.19V695.865H642.385ZM642.385 773.134V772.329H565.116V773.134V773.939H642.385V773.134Z" fill="#80C0FF" mask="url(#path-303-inside-151_8308_1402)"/>
<mask id="path-305-inside-152_8308_1402" fill="white">
<path d="M642.386 695.865H719.655V773.134H642.386V695.865Z"/>
</mask>
<path d="M719.655 773.134V773.939H720.46V773.134H719.655ZM719.655 695.865H718.85V773.134H719.655H720.46V695.865H719.655ZM719.655 773.134V772.329H642.386V773.134V773.939H719.655V773.134Z" fill="#80C0FF" mask="url(#path-305-inside-152_8308_1402)"/>
<mask id="path-307-inside-153_8308_1402" fill="white">
<path d="M719.654 695.865H796.923V773.134H719.654V695.865Z"/>
</mask>
<path d="M796.923 773.134V773.939H797.728V773.134H796.923ZM796.923 695.865H796.118V773.134H796.923H797.728V695.865H796.923ZM796.923 773.134V772.329H719.654V773.134V773.939H796.923V773.134Z" fill="#80C0FF" mask="url(#path-307-inside-153_8308_1402)"/>
<mask id="path-309-inside-154_8308_1402" fill="white">
<path d="M796.923 695.865H874.192V773.134H796.923V695.865Z"/>
</mask>
<path d="M874.192 773.134V773.939H874.997V773.134H874.192ZM874.192 695.865H873.387V773.134H874.192H874.997V695.865H874.192ZM874.192 773.134V772.329H796.923V773.134V773.939H874.192V773.134Z" fill="#80C0FF" mask="url(#path-309-inside-154_8308_1402)"/>
<mask id="path-311-inside-155_8308_1402" fill="white">
<path d="M874.192 695.865H951.461V773.134H874.192V695.865Z"/>
</mask>
<path d="M951.461 773.134V773.939H952.266V773.134H951.461ZM951.461 695.865H950.656V773.134H951.461H952.266V695.865H951.461ZM951.461 773.134V772.329H874.192V773.134V773.939H951.461V773.134Z" fill="#80C0FF" mask="url(#path-311-inside-155_8308_1402)"/>
<mask id="path-313-inside-156_8308_1402" fill="white">
<path d="M951.461 695.865H1028.73V773.134H951.461V695.865Z"/>
</mask>
<path d="M1028.73 773.134V773.939H1029.53V773.134H1028.73ZM1028.73 695.865H1027.92V773.134H1028.73H1029.53V695.865H1028.73ZM1028.73 773.134V772.329H951.461V773.134V773.939H1028.73V773.134Z" fill="#80C0FF" mask="url(#path-313-inside-156_8308_1402)"/>
<mask id="path-315-inside-157_8308_1402" fill="white">
<path d="M1028.73 695.865H1106V773.134H1028.73V695.865Z"/>
</mask>
<path d="M1106 773.134V773.939H1106.8V773.134H1106ZM1106 695.865H1105.19V773.134H1106H1106.8V695.865H1106ZM1106 773.134V772.329H1028.73V773.134V773.939H1106V773.134Z" fill="#80C0FF" mask="url(#path-315-inside-157_8308_1402)"/>
<mask id="path-317-inside-158_8308_1402" fill="white">
<path d="M1106 695.865H1183.27V773.134H1106V695.865Z"/>
</mask>
<path d="M1183.27 773.134V773.939H1184.07V773.134H1183.27ZM1183.27 695.865H1182.46V773.134H1183.27H1184.07V695.865H1183.27ZM1183.27 773.134V772.329H1106V773.134V773.939H1183.27V773.134Z" fill="#80C0FF" mask="url(#path-317-inside-158_8308_1402)"/>
<mask id="path-319-inside-159_8308_1402" fill="white">
<path d="M1183.27 695.865H1260.54V773.134H1183.27V695.865Z"/>
</mask>
<path d="M1260.54 773.134V773.939H1261.34V773.134H1260.54ZM1260.54 695.865H1259.73V773.134H1260.54H1261.34V695.865H1260.54ZM1260.54 773.134V772.329H1183.27V773.134V773.939H1260.54V773.134Z" fill="#80C0FF" mask="url(#path-319-inside-159_8308_1402)"/>
<mask id="path-321-inside-160_8308_1402" fill="white">
<path d="M1260.54 695.865H1337.81V773.134H1260.54V695.865Z"/>
</mask>
<path d="M1260.54 695.865H1337.81V773.134H1260.54V695.865Z" fill="#4AA2FA"/>
<path d="M1337.81 773.134V773.939H1338.61V773.134H1337.81ZM1337.81 695.865H1337V773.134H1337.81H1338.61V695.865H1337.81ZM1337.81 773.134V772.329H1260.54V773.134V773.939H1337.81V773.134Z" fill="#80C0FF" mask="url(#path-321-inside-160_8308_1402)"/>
<mask id="path-323-inside-161_8308_1402" fill="white">
<path d="M101.503 773.134H178.772V850.403H101.503V773.134Z"/>
</mask>
<path d="M178.772 850.403V851.208H179.577V850.403H178.772ZM178.772 773.134H177.967V850.403H178.772H179.577V773.134H178.772ZM178.772 850.403V849.598H101.503V850.403V851.208H178.772V850.403Z" fill="#80C0FF" mask="url(#path-323-inside-161_8308_1402)"/>
<mask id="path-325-inside-162_8308_1402" fill="white">
<path d="M178.771 773.134H256.04V850.403H178.771V773.134Z"/>
</mask>
<path d="M256.04 850.403V851.208H256.845V850.403H256.04ZM256.04 773.134H255.236V850.403H256.04H256.845V773.134H256.04ZM256.04 850.403V849.598H178.771V850.403V851.208H256.04V850.403Z" fill="#80C0FF" mask="url(#path-325-inside-162_8308_1402)"/>
<mask id="path-327-inside-163_8308_1402" fill="white">
<path d="M256.041 773.134H333.31V850.403H256.041V773.134Z"/>
</mask>
<path d="M333.31 850.403V851.208H334.115V850.403H333.31ZM333.31 773.134H332.505V850.403H333.31H334.115V773.134H333.31ZM333.31 850.403V849.598H256.041V850.403V851.208H333.31V850.403Z" fill="#80C0FF" mask="url(#path-327-inside-163_8308_1402)"/>
<mask id="path-329-inside-164_8308_1402" fill="white">
<path d="M333.31 773.134H410.579V850.403H333.31V773.134Z"/>
</mask>
<path d="M410.579 850.403V851.208H411.383V850.403H410.579ZM410.579 773.134H409.774V850.403H410.579H411.383V773.134H410.579ZM410.579 850.403V849.598H333.31V850.403V851.208H410.579V850.403Z" fill="#80C0FF" mask="url(#path-329-inside-164_8308_1402)"/>
<mask id="path-331-inside-165_8308_1402" fill="white">
<path d="M410.578 773.134H487.847V850.403H410.578V773.134Z"/>
</mask>
<path d="M410.578 773.134H487.847V850.403H410.578V773.134Z" fill="#4AA2FA"/>
<path d="M487.847 850.403V851.208H488.652V850.403H487.847ZM487.847 773.134H487.042V850.403H487.847H488.652V773.134H487.847ZM487.847 850.403V849.598H410.578V850.403V851.208H487.847V850.403Z" fill="#80C0FF" mask="url(#path-331-inside-165_8308_1402)"/>
<mask id="path-333-inside-166_8308_1402" fill="white">
<path d="M487.848 773.134H565.117V850.403H487.848V773.134Z"/>
</mask>
<path d="M565.117 850.403V851.208H565.921V850.403H565.117ZM565.117 773.134H564.312V850.403H565.117H565.921V773.134H565.117ZM565.117 850.403V849.598H487.848V850.403V851.208H565.117V850.403Z" fill="#80C0FF" mask="url(#path-333-inside-166_8308_1402)"/>
<mask id="path-335-inside-167_8308_1402" fill="white">
<path d="M565.116 773.134H642.385V850.403H565.116V773.134Z"/>
</mask>
<path d="M642.385 850.403V851.208H643.19V850.403H642.385ZM642.385 773.134H641.58V850.403H642.385H643.19V773.134H642.385ZM642.385 850.403V849.598H565.116V850.403V851.208H642.385V850.403Z" fill="#80C0FF" mask="url(#path-335-inside-167_8308_1402)"/>
<mask id="path-337-inside-168_8308_1402" fill="white">
<path d="M642.386 773.134H719.655V850.403H642.386V773.134Z"/>
</mask>
<path d="M719.655 850.403V851.208H720.46V850.403H719.655ZM719.655 773.134H718.85V850.403H719.655H720.46V773.134H719.655ZM719.655 850.403V849.598H642.386V850.403V851.208H719.655V850.403Z" fill="#80C0FF" mask="url(#path-337-inside-168_8308_1402)"/>
<mask id="path-339-inside-169_8308_1402" fill="white">
<path d="M719.654 773.134H796.923V850.403H719.654V773.134Z"/>
</mask>
<path d="M719.654 773.134H796.923V850.403H719.654V773.134Z" fill="#4AA2FA"/>
<path d="M796.923 850.403V851.208H797.728V850.403H796.923ZM796.923 773.134H796.118V850.403H796.923H797.728V773.134H796.923ZM796.923 850.403V849.598H719.654V850.403V851.208H796.923V850.403Z" fill="#80C0FF" mask="url(#path-339-inside-169_8308_1402)"/>
<mask id="path-341-inside-170_8308_1402" fill="white">
<path d="M796.923 773.134H874.192V850.403H796.923V773.134Z"/>
</mask>
<path d="M874.192 850.403V851.208H874.997V850.403H874.192ZM874.192 773.134H873.387V850.403H874.192H874.997V773.134H874.192ZM874.192 850.403V849.598H796.923V850.403V851.208H874.192V850.403Z" fill="#80C0FF" mask="url(#path-341-inside-170_8308_1402)"/>
<mask id="path-343-inside-171_8308_1402" fill="white">
<path d="M874.192 773.134H951.461V850.403H874.192V773.134Z"/>
</mask>
<path d="M951.461 850.403V851.208H952.266V850.403H951.461ZM951.461 773.134H950.656V850.403H951.461H952.266V773.134H951.461ZM951.461 850.403V849.598H874.192V850.403V851.208H951.461V850.403Z" fill="#80C0FF" mask="url(#path-343-inside-171_8308_1402)"/>
<mask id="path-345-inside-172_8308_1402" fill="white">
<path d="M951.461 773.134H1028.73V850.403H951.461V773.134Z"/>
</mask>
<path d="M1028.73 850.403V851.208H1029.53V850.403H1028.73ZM1028.73 773.134H1027.92V850.403H1028.73H1029.53V773.134H1028.73ZM1028.73 850.403V849.598H951.461V850.403V851.208H1028.73V850.403Z" fill="#80C0FF" mask="url(#path-345-inside-172_8308_1402)"/>
<mask id="path-347-inside-173_8308_1402" fill="white">
<path d="M1028.73 773.134H1106V850.403H1028.73V773.134Z"/>
</mask>
<path d="M1106 850.403V851.208H1106.8V850.403H1106ZM1106 773.134H1105.19V850.403H1106H1106.8V773.134H1106ZM1106 850.403V849.598H1028.73V850.403V851.208H1106V850.403Z" fill="#80C0FF" mask="url(#path-347-inside-173_8308_1402)"/>
<mask id="path-349-inside-174_8308_1402" fill="white">
<path d="M1106 773.134H1183.27V850.403H1106V773.134Z"/>
</mask>
<path d="M1183.27 850.403V851.208H1184.07V850.403H1183.27ZM1183.27 773.134H1182.46V850.403H1183.27H1184.07V773.134H1183.27ZM1183.27 850.403V849.598H1106V850.403V851.208H1183.27V850.403Z" fill="#80C0FF" mask="url(#path-349-inside-174_8308_1402)"/>
<mask id="path-351-inside-175_8308_1402" fill="white">
<path d="M1183.27 773.134H1260.54V850.403H1183.27V773.134Z"/>
</mask>
<path d="M1260.54 850.403V851.208H1261.34V850.403H1260.54ZM1260.54 773.134H1259.73V850.403H1260.54H1261.34V773.134H1260.54ZM1260.54 850.403V849.598H1183.27V850.403V851.208H1260.54V850.403Z" fill="#80C0FF" mask="url(#path-351-inside-175_8308_1402)"/>
<mask id="path-353-inside-176_8308_1402" fill="white">
<path d="M1260.54 773.134H1337.81V850.403H1260.54V773.134Z"/>
</mask>
<path d="M1337.81 850.403V851.208H1338.61V850.403H1337.81ZM1337.81 773.134H1337V850.403H1337.81H1338.61V773.134H1337.81ZM1337.81 850.403V849.598H1260.54V850.403V851.208H1337.81V850.403Z" fill="#80C0FF" mask="url(#path-353-inside-176_8308_1402)"/>
<mask id="path-355-inside-177_8308_1402" fill="white">
<path d="M101.503 850.403H178.772V927.672H101.503V850.403Z"/>
</mask>
<path d="M101.503 850.403H178.772V927.672H101.503V850.403Z" fill="#4AA2FA"/>
<path d="M178.772 927.672V928.477H179.577V927.672H178.772ZM178.772 850.403H177.967V927.672H178.772H179.577V850.403H178.772ZM178.772 927.672V926.867H101.503V927.672V928.477H178.772V927.672Z" fill="#80C0FF" mask="url(#path-355-inside-177_8308_1402)"/>
<mask id="path-357-inside-178_8308_1402" fill="white">
<path d="M178.771 850.403H256.04V927.672H178.771V850.403Z"/>
</mask>
<path d="M256.04 927.672V928.477H256.845V927.672H256.04ZM256.04 850.403H255.236V927.672H256.04H256.845V850.403H256.04ZM256.04 927.672V926.867H178.771V927.672V928.477H256.04V927.672Z" fill="#80C0FF" mask="url(#path-357-inside-178_8308_1402)"/>
<mask id="path-359-inside-179_8308_1402" fill="white">
<path d="M256.041 850.403H333.31V927.672H256.041V850.403Z"/>
</mask>
<path d="M333.31 927.672V928.477H334.115V927.672H333.31ZM333.31 850.403H332.505V927.672H333.31H334.115V850.403H333.31ZM333.31 927.672V926.867H256.041V927.672V928.477H333.31V927.672Z" fill="#80C0FF" mask="url(#path-359-inside-179_8308_1402)"/>
<mask id="path-361-inside-180_8308_1402" fill="white">
<path d="M333.31 850.403H410.579V927.672H333.31V850.403Z"/>
</mask>
<path d="M410.579 927.672V928.477H411.383V927.672H410.579ZM410.579 850.403H409.774V927.672H410.579H411.383V850.403H410.579ZM410.579 927.672V926.867H333.31V927.672V928.477H410.579V927.672Z" fill="#80C0FF" mask="url(#path-361-inside-180_8308_1402)"/>
<mask id="path-363-inside-181_8308_1402" fill="white">
<path d="M410.578 850.403H487.847V927.672H410.578V850.403Z"/>
</mask>
<path d="M487.847 927.672V928.477H488.652V927.672H487.847ZM487.847 850.403H487.042V927.672H487.847H488.652V850.403H487.847ZM487.847 927.672V926.867H410.578V927.672V928.477H487.847V927.672Z" fill="#80C0FF" mask="url(#path-363-inside-181_8308_1402)"/>
<mask id="path-365-inside-182_8308_1402" fill="white">
<path d="M487.848 850.403H565.117V927.672H487.848V850.403Z"/>
</mask>
<path d="M565.117 927.672V928.477H565.921V927.672H565.117ZM565.117 850.403H564.312V927.672H565.117H565.921V850.403H565.117ZM565.117 927.672V926.867H487.848V927.672V928.477H565.117V927.672Z" fill="#80C0FF" mask="url(#path-365-inside-182_8308_1402)"/>
<mask id="path-367-inside-183_8308_1402" fill="white">
<path d="M565.116 850.403H642.385V927.672H565.116V850.403Z"/>
</mask>
<path d="M642.385 927.672V928.477H643.19V927.672H642.385ZM642.385 850.403H641.58V927.672H642.385H643.19V850.403H642.385ZM642.385 927.672V926.867H565.116V927.672V928.477H642.385V927.672Z" fill="#80C0FF" mask="url(#path-367-inside-183_8308_1402)"/>
<mask id="path-369-inside-184_8308_1402" fill="white">
<path d="M642.386 850.403H719.655V927.672H642.386V850.403Z"/>
</mask>
<path d="M719.655 927.672V928.477H720.46V927.672H719.655ZM719.655 850.403H718.85V927.672H719.655H720.46V850.403H719.655ZM719.655 927.672V926.867H642.386V927.672V928.477H719.655V927.672Z" fill="#80C0FF" mask="url(#path-369-inside-184_8308_1402)"/>
<mask id="path-371-inside-185_8308_1402" fill="white">
<path d="M719.654 850.403H796.923V927.672H719.654V850.403Z"/>
</mask>
<path d="M796.923 927.672V928.477H797.728V927.672H796.923ZM796.923 850.403H796.118V927.672H796.923H797.728V850.403H796.923ZM796.923 927.672V926.867H719.654V927.672V928.477H796.923V927.672Z" fill="#80C0FF" mask="url(#path-371-inside-185_8308_1402)"/>
<mask id="path-373-inside-186_8308_1402" fill="white">
<path d="M796.923 850.403H874.192V927.672H796.923V850.403Z"/>
</mask>
<path d="M874.192 927.672V928.477H874.997V927.672H874.192ZM874.192 850.403H873.387V927.672H874.192H874.997V850.403H874.192ZM874.192 927.672V926.867H796.923V927.672V928.477H874.192V927.672Z" fill="#80C0FF" mask="url(#path-373-inside-186_8308_1402)"/>
<mask id="path-375-inside-187_8308_1402" fill="white">
<path d="M874.192 850.403H951.461V927.672H874.192V850.403Z"/>
</mask>
<path d="M951.461 927.672V928.477H952.266V927.672H951.461ZM951.461 850.403H950.656V927.672H951.461H952.266V850.403H951.461ZM951.461 927.672V926.867H874.192V927.672V928.477H951.461V927.672Z" fill="#80C0FF" mask="url(#path-375-inside-187_8308_1402)"/>
<mask id="path-377-inside-188_8308_1402" fill="white">
<path d="M951.461 850.403H1028.73V927.672H951.461V850.403Z"/>
</mask>
<path d="M1028.73 927.672V928.477H1029.53V927.672H1028.73ZM1028.73 850.403H1027.92V927.672H1028.73H1029.53V850.403H1028.73ZM1028.73 927.672V926.867H951.461V927.672V928.477H1028.73V927.672Z" fill="#80C0FF" mask="url(#path-377-inside-188_8308_1402)"/>
<mask id="path-379-inside-189_8308_1402" fill="white">
<path d="M1028.73 850.403H1106V927.672H1028.73V850.403Z"/>
</mask>
<path d="M1028.73 850.403H1106V927.672H1028.73V850.403Z" fill="#4AA2FA"/>
<path d="M1106 927.672V928.477H1106.8V927.672H1106ZM1106 850.403H1105.19V927.672H1106H1106.8V850.403H1106ZM1106 927.672V926.867H1028.73V927.672V928.477H1106V927.672Z" fill="#80C0FF" mask="url(#path-379-inside-189_8308_1402)"/>
<mask id="path-381-inside-190_8308_1402" fill="white">
<path d="M1106 850.403H1183.27V927.672H1106V850.403Z"/>
</mask>
<path d="M1183.27 927.672V928.477H1184.07V927.672H1183.27ZM1183.27 850.403H1182.46V927.672H1183.27H1184.07V850.403H1183.27ZM1183.27 927.672V926.867H1106V927.672V928.477H1183.27V927.672Z" fill="#80C0FF" mask="url(#path-381-inside-190_8308_1402)"/>
<mask id="path-383-inside-191_8308_1402" fill="white">
<path d="M1183.27 850.403H1260.54V927.672H1183.27V850.403Z"/>
</mask>
<path d="M1260.54 927.672V928.477H1261.34V927.672H1260.54ZM1260.54 850.403H1259.73V927.672H1260.54H1261.34V850.403H1260.54ZM1260.54 927.672V926.867H1183.27V927.672V928.477H1260.54V927.672Z" fill="#80C0FF" mask="url(#path-383-inside-191_8308_1402)"/>
<mask id="path-385-inside-192_8308_1402" fill="white">
<path d="M1260.54 850.403H1337.81V927.672H1260.54V850.403Z"/>
</mask>
<path d="M1337.81 927.672V928.477H1338.61V927.672H1337.81ZM1337.81 850.403H1337V927.672H1337.81H1338.61V850.403H1337.81ZM1337.81 927.672V926.867H1260.54V927.672V928.477H1337.81V927.672Z" fill="#80C0FF" mask="url(#path-385-inside-192_8308_1402)"/>
<mask id="path-387-inside-193_8308_1402" fill="white">
<path d="M101.503 927.672H178.772V1004.94H101.503V927.672Z"/>
</mask>
<path d="M178.772 1004.94V1005.75H179.577V1004.94H178.772ZM178.772 927.672H177.967V1004.94H178.772H179.577V927.672H178.772ZM178.772 1004.94V1004.14H101.503V1004.94V1005.75H178.772V1004.94Z" fill="#80C0FF" mask="url(#path-387-inside-193_8308_1402)"/>
<mask id="path-389-inside-194_8308_1402" fill="white">
<path d="M178.771 927.672H256.04V1004.94H178.771V927.672Z"/>
</mask>
<path d="M256.04 1004.94V1005.75H256.845V1004.94H256.04ZM256.04 927.672H255.236V1004.94H256.04H256.845V927.672H256.04ZM256.04 1004.94V1004.14H178.771V1004.94V1005.75H256.04V1004.94Z" fill="#80C0FF" mask="url(#path-389-inside-194_8308_1402)"/>
<mask id="path-391-inside-195_8308_1402" fill="white">
<path d="M256.041 927.672H333.31V1004.94H256.041V927.672Z"/>
</mask>
<path d="M333.31 1004.94V1005.75H334.115V1004.94H333.31ZM333.31 927.672H332.505V1004.94H333.31H334.115V927.672H333.31ZM333.31 1004.94V1004.14H256.041V1004.94V1005.75H333.31V1004.94Z" fill="#80C0FF" mask="url(#path-391-inside-195_8308_1402)"/>
<mask id="path-393-inside-196_8308_1402" fill="white">
<path d="M333.31 927.672H410.579V1004.94H333.31V927.672Z"/>
</mask>
<path d="M410.579 1004.94V1005.75H411.383V1004.94H410.579ZM410.579 927.672H409.774V1004.94H410.579H411.383V927.672H410.579ZM410.579 1004.94V1004.14H333.31V1004.94V1005.75H410.579V1004.94Z" fill="#80C0FF" mask="url(#path-393-inside-196_8308_1402)"/>
<mask id="path-395-inside-197_8308_1402" fill="white">
<path d="M410.578 927.672H487.847V1004.94H410.578V927.672Z"/>
</mask>
<path d="M487.847 1004.94V1005.75H488.652V1004.94H487.847ZM487.847 927.672H487.042V1004.94H487.847H488.652V927.672H487.847ZM487.847 1004.94V1004.14H410.578V1004.94V1005.75H487.847V1004.94Z" fill="#80C0FF" mask="url(#path-395-inside-197_8308_1402)"/>
<mask id="path-397-inside-198_8308_1402" fill="white">
<path d="M487.848 927.672H565.117V1004.94H487.848V927.672Z"/>
</mask>
<path d="M565.117 1004.94V1005.75H565.921V1004.94H565.117ZM565.117 927.672H564.312V1004.94H565.117H565.921V927.672H565.117ZM565.117 1004.94V1004.14H487.848V1004.94V1005.75H565.117V1004.94Z" fill="#80C0FF" mask="url(#path-397-inside-198_8308_1402)"/>
<mask id="path-399-inside-199_8308_1402" fill="white">
<path d="M565.116 927.672H642.385V1004.94H565.116V927.672Z"/>
</mask>
<path d="M565.116 927.672H642.385V1004.94H565.116V927.672Z" fill="#4AA2FA"/>
<path d="M642.385 1004.94V1005.75H643.19V1004.94H642.385ZM642.385 927.672H641.58V1004.94H642.385H643.19V927.672H642.385ZM642.385 1004.94V1004.14H565.116V1004.94V1005.75H642.385V1004.94Z" fill="#80C0FF" mask="url(#path-399-inside-199_8308_1402)"/>
<mask id="path-401-inside-200_8308_1402" fill="white">
<path d="M642.386 927.672H719.655V1004.94H642.386V927.672Z"/>
</mask>
<path d="M719.655 1004.94V1005.75H720.46V1004.94H719.655ZM719.655 927.672H718.85V1004.94H719.655H720.46V927.672H719.655ZM719.655 1004.94V1004.14H642.386V1004.94V1005.75H719.655V1004.94Z" fill="#80C0FF" mask="url(#path-401-inside-200_8308_1402)"/>
<mask id="path-403-inside-201_8308_1402" fill="white">
<path d="M719.654 927.672H796.923V1004.94H719.654V927.672Z"/>
</mask>
<path d="M796.923 1004.94V1005.75H797.728V1004.94H796.923ZM796.923 927.672H796.118V1004.94H796.923H797.728V927.672H796.923ZM796.923 1004.94V1004.14H719.654V1004.94V1005.75H796.923V1004.94Z" fill="#80C0FF" mask="url(#path-403-inside-201_8308_1402)"/>
<mask id="path-405-inside-202_8308_1402" fill="white">
<path d="M796.923 927.672H874.192V1004.94H796.923V927.672Z"/>
</mask>
<path d="M874.192 1004.94V1005.75H874.997V1004.94H874.192ZM874.192 927.672H873.387V1004.94H874.192H874.997V927.672H874.192ZM874.192 1004.94V1004.14H796.923V1004.94V1005.75H874.192V1004.94Z" fill="#80C0FF" mask="url(#path-405-inside-202_8308_1402)"/>
<mask id="path-407-inside-203_8308_1402" fill="white">
<path d="M874.192 927.672H951.461V1004.94H874.192V927.672Z"/>
</mask>
<path d="M951.461 1004.94V1005.75H952.266V1004.94H951.461ZM951.461 927.672H950.656V1004.94H951.461H952.266V927.672H951.461ZM951.461 1004.94V1004.14H874.192V1004.94V1005.75H951.461V1004.94Z" fill="#80C0FF" mask="url(#path-407-inside-203_8308_1402)"/>
<mask id="path-409-inside-204_8308_1402" fill="white">
<path d="M951.461 927.672H1028.73V1004.94H951.461V927.672Z"/>
</mask>
<path d="M1028.73 1004.94V1005.75H1029.53V1004.94H1028.73ZM1028.73 927.672H1027.92V1004.94H1028.73H1029.53V927.672H1028.73ZM1028.73 1004.94V1004.14H951.461V1004.94V1005.75H1028.73V1004.94Z" fill="#80C0FF" mask="url(#path-409-inside-204_8308_1402)"/>
<mask id="path-411-inside-205_8308_1402" fill="white">
<path d="M1028.73 927.672H1106V1004.94H1028.73V927.672Z"/>
</mask>
<path d="M1106 1004.94V1005.75H1106.8V1004.94H1106ZM1106 927.672H1105.19V1004.94H1106H1106.8V927.672H1106ZM1106 1004.94V1004.14H1028.73V1004.94V1005.75H1106V1004.94Z" fill="#80C0FF" mask="url(#path-411-inside-205_8308_1402)"/>
<mask id="path-413-inside-206_8308_1402" fill="white">
<path d="M1106 927.672H1183.27V1004.94H1106V927.672Z"/>
</mask>
<path d="M1183.27 1004.94V1005.75H1184.07V1004.94H1183.27ZM1183.27 927.672H1182.46V1004.94H1183.27H1184.07V927.672H1183.27ZM1183.27 1004.94V1004.14H1106V1004.94V1005.75H1183.27V1004.94Z" fill="#80C0FF" mask="url(#path-413-inside-206_8308_1402)"/>
<mask id="path-415-inside-207_8308_1402" fill="white">
<path d="M1183.27 927.672H1260.54V1004.94H1183.27V927.672Z"/>
</mask>
<path d="M1260.54 1004.94V1005.75H1261.34V1004.94H1260.54ZM1260.54 927.672H1259.73V1004.94H1260.54H1261.34V927.672H1260.54ZM1260.54 1004.94V1004.14H1183.27V1004.94V1005.75H1260.54V1004.94Z" fill="#80C0FF" mask="url(#path-415-inside-207_8308_1402)"/>
<mask id="path-417-inside-208_8308_1402" fill="white">
<path d="M1260.54 927.672H1337.81V1004.94H1260.54V927.672Z"/>
</mask>
<path d="M1337.81 1004.94V1005.75H1338.61V1004.94H1337.81ZM1337.81 927.672H1337V1004.94H1337.81H1338.61V927.672H1337.81ZM1337.81 1004.94V1004.14H1260.54V1004.94V1005.75H1337.81V1004.94Z" fill="#80C0FF" mask="url(#path-417-inside-208_8308_1402)"/>
<mask id="path-419-inside-209_8308_1402" fill="white">
<path d="M101.503 1004.94H178.772V1082.21H101.503V1004.94Z"/>
</mask>
<path d="M178.772 1082.21V1083.01H179.577V1082.21H178.772ZM178.772 1004.94H177.967V1082.21H178.772H179.577V1004.94H178.772ZM178.772 1082.21V1081.4H101.503V1082.21V1083.01H178.772V1082.21Z" fill="#80C0FF" mask="url(#path-419-inside-209_8308_1402)"/>
<mask id="path-421-inside-210_8308_1402" fill="white">
<path d="M178.771 1004.94H256.04V1082.21H178.771V1004.94Z"/>
</mask>
<path d="M256.04 1082.21V1083.01H256.845V1082.21H256.04ZM256.04 1004.94H255.236V1082.21H256.04H256.845V1004.94H256.04ZM256.04 1082.21V1081.4H178.771V1082.21V1083.01H256.04V1082.21Z" fill="#80C0FF" mask="url(#path-421-inside-210_8308_1402)"/>
<mask id="path-423-inside-211_8308_1402" fill="white">
<path d="M256.041 1004.94H333.31V1082.21H256.041V1004.94Z"/>
</mask>
<path d="M333.31 1082.21V1083.01H334.115V1082.21H333.31ZM333.31 1004.94H332.505V1082.21H333.31H334.115V1004.94H333.31ZM333.31 1082.21V1081.4H256.041V1082.21V1083.01H333.31V1082.21Z" fill="#80C0FF" mask="url(#path-423-inside-211_8308_1402)"/>
<mask id="path-425-inside-212_8308_1402" fill="white">
<path d="M333.31 1004.94H410.579V1082.21H333.31V1004.94Z"/>
</mask>
<path d="M333.31 1004.94H410.579V1082.21H333.31V1004.94Z" fill="#4AA2FA"/>
<path d="M410.579 1082.21V1083.01H411.383V1082.21H410.579ZM410.579 1004.94H409.774V1082.21H410.579H411.383V1004.94H410.579ZM410.579 1082.21V1081.4H333.31V1082.21V1083.01H410.579V1082.21Z" fill="#80C0FF" mask="url(#path-425-inside-212_8308_1402)"/>
<mask id="path-427-inside-213_8308_1402" fill="white">
<path d="M410.578 1004.94H487.847V1082.21H410.578V1004.94Z"/>
</mask>
<path d="M487.847 1082.21V1083.01H488.652V1082.21H487.847ZM487.847 1004.94H487.042V1082.21H487.847H488.652V1004.94H487.847ZM487.847 1082.21V1081.4H410.578V1082.21V1083.01H487.847V1082.21Z" fill="#80C0FF" mask="url(#path-427-inside-213_8308_1402)"/>
<mask id="path-429-inside-214_8308_1402" fill="white">
<path d="M487.848 1004.94H565.117V1082.21H487.848V1004.94Z"/>
</mask>
<path d="M565.117 1082.21V1083.01H565.921V1082.21H565.117ZM565.117 1004.94H564.312V1082.21H565.117H565.921V1004.94H565.117ZM565.117 1082.21V1081.4H487.848V1082.21V1083.01H565.117V1082.21Z" fill="#80C0FF" mask="url(#path-429-inside-214_8308_1402)"/>
<mask id="path-431-inside-215_8308_1402" fill="white">
<path d="M565.116 1004.94H642.385V1082.21H565.116V1004.94Z"/>
</mask>
<path d="M642.385 1082.21V1083.01H643.19V1082.21H642.385ZM642.385 1004.94H641.58V1082.21H642.385H643.19V1004.94H642.385ZM642.385 1082.21V1081.4H565.116V1082.21V1083.01H642.385V1082.21Z" fill="#80C0FF" mask="url(#path-431-inside-215_8308_1402)"/>
<mask id="path-433-inside-216_8308_1402" fill="white">
<path d="M642.386 1004.94H719.655V1082.21H642.386V1004.94Z"/>
</mask>
<path d="M719.655 1082.21V1083.01H720.46V1082.21H719.655ZM719.655 1004.94H718.85V1082.21H719.655H720.46V1004.94H719.655ZM719.655 1082.21V1081.4H642.386V1082.21V1083.01H719.655V1082.21Z" fill="#80C0FF" mask="url(#path-433-inside-216_8308_1402)"/>
<mask id="path-435-inside-217_8308_1402" fill="white">
<path d="M719.654 1004.94H796.923V1082.21H719.654V1004.94Z"/>
</mask>
<path d="M796.923 1082.21V1083.01H797.728V1082.21H796.923ZM796.923 1004.94H796.118V1082.21H796.923H797.728V1004.94H796.923ZM796.923 1082.21V1081.4H719.654V1082.21V1083.01H796.923V1082.21Z" fill="#80C0FF" mask="url(#path-435-inside-217_8308_1402)"/>
<mask id="path-437-inside-218_8308_1402" fill="white">
<path d="M796.923 1004.94H874.192V1082.21H796.923V1004.94Z"/>
</mask>
<path d="M796.923 1004.94H874.192V1082.21H796.923V1004.94Z" fill="#4AA2FA"/>
<path d="M874.192 1082.21V1083.01H874.997V1082.21H874.192ZM874.192 1004.94H873.387V1082.21H874.192H874.997V1004.94H874.192ZM874.192 1082.21V1081.4H796.923V1082.21V1083.01H874.192V1082.21Z" fill="#80C0FF" mask="url(#path-437-inside-218_8308_1402)"/>
<mask id="path-439-inside-219_8308_1402" fill="white">
<path d="M874.192 1004.94H951.461V1082.21H874.192V1004.94Z"/>
</mask>
<path d="M951.461 1082.21V1083.01H952.266V1082.21H951.461ZM951.461 1004.94H950.656V1082.21H951.461H952.266V1004.94H951.461ZM951.461 1082.21V1081.4H874.192V1082.21V1083.01H951.461V1082.21Z" fill="#80C0FF" mask="url(#path-439-inside-219_8308_1402)"/>
<mask id="path-441-inside-220_8308_1402" fill="white">
<path d="M951.461 1004.94H1028.73V1082.21H951.461V1004.94Z"/>
</mask>
<path d="M1028.73 1082.21V1083.01H1029.53V1082.21H1028.73ZM1028.73 1004.94H1027.92V1082.21H1028.73H1029.53V1004.94H1028.73ZM1028.73 1082.21V1081.4H951.461V1082.21V1083.01H1028.73V1082.21Z" fill="#80C0FF" mask="url(#path-441-inside-220_8308_1402)"/>
<mask id="path-443-inside-221_8308_1402" fill="white">
<path d="M1028.73 1004.94H1106V1082.21H1028.73V1004.94Z"/>
</mask>
<path d="M1106 1082.21V1083.01H1106.8V1082.21H1106ZM1106 1004.94H1105.19V1082.21H1106H1106.8V1004.94H1106ZM1106 1082.21V1081.4H1028.73V1082.21V1083.01H1106V1082.21Z" fill="#80C0FF" mask="url(#path-443-inside-221_8308_1402)"/>
<mask id="path-445-inside-222_8308_1402" fill="white">
<path d="M1106 1004.94H1183.27V1082.21H1106V1004.94Z"/>
</mask>
<path d="M1183.27 1082.21V1083.01H1184.07V1082.21H1183.27ZM1183.27 1004.94H1182.46V1082.21H1183.27H1184.07V1004.94H1183.27ZM1183.27 1082.21V1081.4H1106V1082.21V1083.01H1183.27V1082.21Z" fill="#80C0FF" mask="url(#path-445-inside-222_8308_1402)"/>
<mask id="path-447-inside-223_8308_1402" fill="white">
<path d="M1183.27 1004.94H1260.54V1082.21H1183.27V1004.94Z"/>
</mask>
<path d="M1260.54 1082.21V1083.01H1261.34V1082.21H1260.54ZM1260.54 1004.94H1259.73V1082.21H1260.54H1261.34V1004.94H1260.54ZM1260.54 1082.21V1081.4H1183.27V1082.21V1083.01H1260.54V1082.21Z" fill="#80C0FF" mask="url(#path-447-inside-223_8308_1402)"/>
<mask id="path-449-inside-224_8308_1402" fill="white">
<path d="M1260.54 1004.94H1337.81V1082.21H1260.54V1004.94Z"/>
</mask>
<path d="M1337.81 1082.21V1083.01H1338.61V1082.21H1337.81ZM1337.81 1004.94H1337V1082.21H1337.81H1338.61V1004.94H1337.81ZM1337.81 1082.21V1081.4H1260.54V1082.21V1083.01H1337.81V1082.21Z" fill="#80C0FF" mask="url(#path-449-inside-224_8308_1402)"/>
<mask id="path-451-inside-225_8308_1402" fill="white">
<path d="M101.503 1082.21H178.772V1159.48H101.503V1082.21Z"/>
</mask>
<path d="M178.772 1159.48V1160.28H179.577V1159.48H178.772ZM178.772 1082.21H177.967V1159.48H178.772H179.577V1082.21H178.772ZM178.772 1159.48V1158.67H101.503V1159.48V1160.28H178.772V1159.48Z" fill="#80C0FF" mask="url(#path-451-inside-225_8308_1402)"/>
<mask id="path-453-inside-226_8308_1402" fill="white">
<path d="M178.771 1082.21H256.04V1159.48H178.771V1082.21Z"/>
</mask>
<path d="M178.771 1082.21H256.04V1159.48H178.771V1082.21Z" fill="#4AA2FA"/>
<path d="M256.04 1159.48V1160.28H256.845V1159.48H256.04ZM256.04 1082.21H255.236V1159.48H256.04H256.845V1082.21H256.04ZM256.04 1159.48V1158.67H178.771V1159.48V1160.28H256.04V1159.48Z" fill="#80C0FF" mask="url(#path-453-inside-226_8308_1402)"/>
<mask id="path-455-inside-227_8308_1402" fill="white">
<path d="M256.041 1082.21H333.31V1159.48H256.041V1082.21Z"/>
</mask>
<path d="M333.31 1159.48V1160.28H334.115V1159.48H333.31ZM333.31 1082.21H332.505V1159.48H333.31H334.115V1082.21H333.31ZM333.31 1159.48V1158.67H256.041V1159.48V1160.28H333.31V1159.48Z" fill="#80C0FF" mask="url(#path-455-inside-227_8308_1402)"/>
<mask id="path-457-inside-228_8308_1402" fill="white">
<path d="M333.31 1082.21H410.579V1159.48H333.31V1082.21Z"/>
</mask>
<path d="M410.579 1159.48V1160.28H411.383V1159.48H410.579ZM410.579 1082.21H409.774V1159.48H410.579H411.383V1082.21H410.579ZM410.579 1159.48V1158.67H333.31V1159.48V1160.28H410.579V1159.48Z" fill="#80C0FF" mask="url(#path-457-inside-228_8308_1402)"/>
<mask id="path-459-inside-229_8308_1402" fill="white">
<path d="M410.578 1082.21H487.847V1159.48H410.578V1082.21Z"/>
</mask>
<path d="M487.847 1159.48V1160.28H488.652V1159.48H487.847ZM487.847 1082.21H487.042V1159.48H487.847H488.652V1082.21H487.847ZM487.847 1159.48V1158.67H410.578V1159.48V1160.28H487.847V1159.48Z" fill="#80C0FF" mask="url(#path-459-inside-229_8308_1402)"/>
<mask id="path-461-inside-230_8308_1402" fill="white">
<path d="M487.848 1082.21H565.117V1159.48H487.848V1082.21Z"/>
</mask>
<path d="M565.117 1159.48V1160.28H565.921V1159.48H565.117ZM565.117 1082.21H564.312V1159.48H565.117H565.921V1082.21H565.117ZM565.117 1159.48V1158.67H487.848V1159.48V1160.28H565.117V1159.48Z" fill="#80C0FF" mask="url(#path-461-inside-230_8308_1402)"/>
<mask id="path-463-inside-231_8308_1402" fill="white">
<path d="M565.116 1082.21H642.385V1159.48H565.116V1082.21Z"/>
</mask>
<path d="M642.385 1159.48V1160.28H643.19V1159.48H642.385ZM642.385 1082.21H641.58V1159.48H642.385H643.19V1082.21H642.385ZM642.385 1159.48V1158.67H565.116V1159.48V1160.28H642.385V1159.48Z" fill="#80C0FF" mask="url(#path-463-inside-231_8308_1402)"/>
<mask id="path-465-inside-232_8308_1402" fill="white">
<path d="M642.386 1082.21H719.655V1159.48H642.386V1082.21Z"/>
</mask>
<path d="M719.655 1159.48V1160.28H720.46V1159.48H719.655ZM719.655 1082.21H718.85V1159.48H719.655H720.46V1082.21H719.655ZM719.655 1159.48V1158.67H642.386V1159.48V1160.28H719.655V1159.48Z" fill="#80C0FF" mask="url(#path-465-inside-232_8308_1402)"/>
<mask id="path-467-inside-233_8308_1402" fill="white">
<path d="M719.654 1082.21H796.923V1159.48H719.654V1082.21Z"/>
</mask>
<path d="M796.923 1159.48V1160.28H797.728V1159.48H796.923ZM796.923 1082.21H796.118V1159.48H796.923H797.728V1082.21H796.923ZM796.923 1159.48V1158.67H719.654V1159.48V1160.28H796.923V1159.48Z" fill="#80C0FF" mask="url(#path-467-inside-233_8308_1402)"/>
<mask id="path-469-inside-234_8308_1402" fill="white">
<path d="M796.923 1082.21H874.192V1159.48H796.923V1082.21Z"/>
</mask>
<path d="M874.192 1159.48V1160.28H874.997V1159.48H874.192ZM874.192 1082.21H873.387V1159.48H874.192H874.997V1082.21H874.192ZM874.192 1159.48V1158.67H796.923V1159.48V1160.28H874.192V1159.48Z" fill="#80C0FF" mask="url(#path-469-inside-234_8308_1402)"/>
<mask id="path-471-inside-235_8308_1402" fill="white">
<path d="M874.192 1082.21H951.461V1159.48H874.192V1082.21Z"/>
</mask>
<path d="M951.461 1159.48V1160.28H952.266V1159.48H951.461ZM951.461 1082.21H950.656V1159.48H951.461H952.266V1082.21H951.461ZM951.461 1159.48V1158.67H874.192V1159.48V1160.28H951.461V1159.48Z" fill="#80C0FF" mask="url(#path-471-inside-235_8308_1402)"/>
<mask id="path-473-inside-236_8308_1402" fill="white">
<path d="M951.461 1082.21H1028.73V1159.48H951.461V1082.21Z"/>
</mask>
<path d="M1028.73 1159.48V1160.28H1029.53V1159.48H1028.73ZM1028.73 1082.21H1027.92V1159.48H1028.73H1029.53V1082.21H1028.73ZM1028.73 1159.48V1158.67H951.461V1159.48V1160.28H1028.73V1159.48Z" fill="#80C0FF" mask="url(#path-473-inside-236_8308_1402)"/>
<mask id="path-475-inside-237_8308_1402" fill="white">
<path d="M1028.73 1082.21H1106V1159.48H1028.73V1082.21Z"/>
</mask>
<path d="M1106 1159.48V1160.28H1106.8V1159.48H1106ZM1106 1082.21H1105.19V1159.48H1106H1106.8V1082.21H1106ZM1106 1159.48V1158.67H1028.73V1159.48V1160.28H1106V1159.48Z" fill="#80C0FF" mask="url(#path-475-inside-237_8308_1402)"/>
<mask id="path-477-inside-238_8308_1402" fill="white">
<path d="M1106 1082.21H1183.27V1159.48H1106V1082.21Z"/>
</mask>
<path d="M1183.27 1159.48V1160.28H1184.07V1159.48H1183.27ZM1183.27 1082.21H1182.46V1159.48H1183.27H1184.07V1082.21H1183.27ZM1183.27 1159.48V1158.67H1106V1159.48V1160.28H1183.27V1159.48Z" fill="#80C0FF" mask="url(#path-477-inside-238_8308_1402)"/>
<mask id="path-479-inside-239_8308_1402" fill="white">
<path d="M1183.27 1082.21H1260.54V1159.48H1183.27V1082.21Z"/>
</mask>
<path d="M1183.27 1082.21H1260.54V1159.48H1183.27V1082.21Z" fill="#4AA2FA"/>
<path d="M1260.54 1159.48V1160.28H1261.34V1159.48H1260.54ZM1260.54 1082.21H1259.73V1159.48H1260.54H1261.34V1082.21H1260.54ZM1260.54 1159.48V1158.67H1183.27V1159.48V1160.28H1260.54V1159.48Z" fill="#80C0FF" mask="url(#path-479-inside-239_8308_1402)"/>
<mask id="path-481-inside-240_8308_1402" fill="white">
<path d="M1260.54 1082.21H1337.81V1159.48H1260.54V1082.21Z"/>
</mask>
<path d="M1337.81 1159.48V1160.28H1338.61V1159.48H1337.81ZM1337.81 1082.21H1337V1159.48H1337.81H1338.61V1082.21H1337.81ZM1337.81 1159.48V1158.67H1260.54V1159.48V1160.28H1337.81V1159.48Z" fill="#80C0FF" mask="url(#path-481-inside-240_8308_1402)"/>
</g>
<rect x="-52.6327" y="0.847023" width="1544.57" height="1158.23" stroke="#80C0FF" stroke-width="0.804885"/>
</g>
</g>
<defs>
<radialGradient id="paint0_radial_8308_1402" cx="0" cy="0" r="1" gradientUnits="userSpaceOnUse" gradientTransform="translate(579.517 -0.000138168) rotate(90) scale(1159.03 604.942)">
<stop/>
<stop offset="0.953125" stop-opacity="0"/>
</radialGradient>
<clipPath id="clip0_8308_1402">
<rect x="-53.0352" y="0.44458" width="1545.38" height="1159.03" fill="white"/>
</clipPath>
</defs>
</svg>
